<svg version="1" xmlns="http://www.w3.org/2000/svg" width="1600" height="991" viewBox="0 0 16000 9910">
  <path d="M0 4955V0h16000v9910H0V4955z" fill="#040b1b"/>
  <g fill="#0c192c">
    <path d="M2752 9528c12-35 169-50 233-24 65 28 41 36-101 36-104 0-135-3-132-12zM15865 9329c-43-22-88-39-100-38h-20l20 9c12 4 27 15 34 24 12 14 11 16-5 16-18 0-30-6-83-38-21-12-21-12-15 15l7 28-41-37c-47-43-58-47-42-19 16 31 12 32-22 11-44-26-52-25-32 5 21 32 15 31-50-5-35-20-57-27-61-20-3 6-12 7-18 4-7-4-1 5 12 19 14 15 23 29 20 31-2 2-35-9-74-25-38-16-81-28-95-28h-25l30 24c49 40 22 38-60-5-43-22-80-38-82-36-3 2 5 22 16 45 12 22 21 43 21 46 0 4-20-11-45-33-43-37-91-60-103-48-2 3 1 12 8 21 8 10 9 15 1 15-6 0-11 7-11 15 0 20-4 19-48-9-61-39-107-45-70-8 29 29-7 21-76-16-42-23-76-37-76-32s5 12 10 15c6 3 10 10 10 16 0 14-22 11-42-8-11-9-18-11-18-5 0 21-23 13-57-20-22-21-33-27-33-17 0 8 5 20 12 27 28 28-5 19-83-23-97-52-118-57-69-15 31 26 32 29 14 30-12 0-38-11-58-25-45-30-49-31-41-5 9 30-4 25-48-17-26-25-36-31-28-16 17 34 14 36-23 14-39-25-53-27-36-6 24 29 4 34-33 8-23-16-53-28-74-29l-36-1 28 23c42 33 25 39-32 11-61-31-123-51-131-43-3 4 7 18 23 31 18 14 24 24 16 25-16 0-117-54-143-78-25-22-24 3 2 46 11 18 20 35 20 37 0 12-58-31-92-69l-37-41-1 35-1 35-19-36c-30-57-125-131-106-84 3 9-2 24-11 35-17 19-17 19-42-9-27-29-61-51-82-51-8 0-8 4 1 15 7 9 10 18 7 22-6 5-18-3-105-74l-33-27 6 27c8 32-5 35-30 7-13-15-21-17-26-9-4 8-17-2-36-29-32-47-46-53-37-17 9 34-2 31-22-6-24-47-7-74 66-106 124-53 81-122-139-219-160-70-384-137-636-189-117-24-113-21-74-63 19-20 44-48 54-61l20-24-50 8c-44 6-183 43-227 60-16 6-18-1-18-74 0-191-39-382-96-464-32-48-47-39-70 41-13 45-16 84-11 192 3 74 10 159 17 188s10 56 7 58c-3 3-20-16-38-42-75-110-279-317-296-300-21 20 67 225 134 313 37 49 34 54-13 18-41-32-46-31-38 3l7 27-39-36c-46-43-74-59-105-59-19 0-20 2-8 17 11 13 11 17 2 20-7 3-13 11-13 19 0 19-3 18-46-11-40-27-81-41-91-31-4 3 2 13 13 20 10 8 16 17 12 21s-41-11-83-34c-42-22-79-41-81-41-3 0 0 9 6 21 17 31 4 35-32 9-24-17-30-19-25-7 11 29-15 19-55-20-39-38-51-31-22 12 9 14 14 25 11 25s-43-20-88-45c-85-45-158-65-91-25 28 17 43 40 27 40s-72-29-84-43c-20-25-32-20-25 11 6 26 4 25-40-18-46-44-56-47-36-9 14 24 3 24-35-1-40-27-49-25-29 5 23 34 5 31-57-10-33-23-55-32-59-25-4 6-15 8-26 3-10-4-4 7 16 25 43 39 30 40-52 4-71-32-118-46-118-35 0 4 12 17 28 30 50 41-7 27-86-21-40-25-72-40-72-34s12 31 26 55c14 25 24 47 21 49-2 2-28-12-57-32l-53-36 6 33 7 34-25-27c-35-41-94-78-123-78-22 0-23 2-11 17 11 13 11 17 2 20-7 3-13 11-13 19 0 19-14 18-31-3-16-18-70-43-95-43-16 0-16 2 1 20 33 36 7 33-69-9-41-22-78-41-81-41s2 11 11 25c20 31 4 33-37 4-22-15-27-17-23-5 9 24-4 19-52-20-45-37-56-36-28 4 9 13 14 26 11 28-3 3-41-15-85-40-84-49-137-64-88-25 14 11 26 24 26 29 0 14-61-8-85-30-28-27-33-25-27 8 4 27 4 27-38-13-34-33-41-36-35-17 8 27 4 27-37 2-37-22-59-27-40-8 32 32-1 30-48-3-14-9-41-17-60-16-38 0-158-44-202-75-35-24-37-62-5-82 23-15 94-36 188-55 31-7 64-18 74-25 16-11 15-14-12-42-16-16-41-45-56-64s-27-29-27-22c0 9-11 4-31-12-17-14-38-26-46-26-9 0-13 3-10 7 4 3 2 12-4 19-8 10-18 8-47-9-31-18-35-19-29-4 8 23-4 21-47-4-33-19-36-19-36-4s-3 15-15 5c-9-7-18-10-22-6-4 3-18-4-31-16l-24-23 7 25c8 24 8 24-19 7-14-10-37-22-51-27-19-7-23-6-18 6 4 10 0 12-13 8-11-4-25-11-31-17-9-6-13-5-13 4 0 7-10 3-26-12-22-20-24-21-18-4 8 19 7 19-18 3-25-17-26-17-20 5l5 21-28-22c-15-12-37-22-49-22-19 1-19 2-3 11 9 5 17 14 17 18 0 5-30-4-67-19-60-24-69-25-75-11-4 9-7 12-7 6-1-10-61-55-74-55-4 0-7 9-7 20 0 23-6 24-40 5-32-19-44-19-36 0 7 20-3 19-43-6-19-11-37-16-40-12-6 10-51 12-51 3 0-3-9-11-20-17-16-11-18-10-14 2 8 20-5 19-41-3-16-10-39-21-49-25-16-6-17-5-6 8 10 12 10 15-2 15-8 0-20-6-27-12-11-11-14-10-18 0s-12 7-31-10c-14-13-22-17-18-10 8 14-10 17-19 2-11-17-25-11-18 7 7 17 6 17-20 0-34-22-65-24-47-2 17 20 8 19-47-6-25-11-48-17-51-13-4 4-1 9 6 11 6 3 12 9 12 15 0 5-21-2-46-16-56-31-58-32-44-5 17 31 4 36-30 11-35-26-40-27-40-7 0 10-14 4-46-20-51-40-79-46-69-16 10 32-14 34-50 6-20-14-40-23-45-20s-28-13-50-37c-38-41-40-41-30-13 6 16 16 35 22 42 15 18 8 17-61-13-49-21-71-40-125-104-63-76-65-80-64-132 2-70-8-98-34-98-19 0-20 4-15 45l7 45-63-63c-58-58-62-64-56-98 6-40-6-83-21-74-5 3-10 24-10 47v40l-25-16c-41-27-41-18-1 23 39 40 36 51-16 51-14 0-19 6-16 23 4 31 44 35 74 6l25-23 56 56c55 55 61 78 22 78-12 0-19 5-17 13 7 18 34 20 51 3 18-18 18-18 70 70 21 34 53 74 72 88 19 15 35 34 35 42 0 11-9 8-35-12-37-28-42-26-24 8 10 18 1 15-54-15-36-21-71-37-79-37-8 1-7 4 5 11 9 5 17 14 17 19 0 16-26 11-53-10-30-24-41-25-33-5 8 22-4 18-37-12-21-20-28-23-24-10 8 21-2 22-31 1-23-16-30-6-10 14 22 22-9 14-47-12s-76-26-54 0c21 25 3 25-55-1-66-29-105-34-69-8 13 8 23 19 23 24 0 12-44-6-88-36-50-34-58-31-33 11 24 40 25 44 11 44-6 0-19-14-29-30-10-17-43-46-72-65-43-28-64-35-105-35-51 0-51 0-63-41-11-37-18-43-88-75-60-27-88-34-137-34-86 0-119 23-158 108-36 81-34 78-52 63-8-7-27-14-41-16-15-1-39-11-53-22-51-37-56-38-50-15 8 27-3 28-20 2-13-22-91-65-100-56-3 4-1 11 6 18 8 8 7 15-4 26-13 13-17 13-32-1-9-9-29-19-45-22-22-6-26-4-21 9 8 22 3 21-67-14-54-28-59-29-49-10 14 26-5 28-32 3-11-10-19-13-18-8 6 27-3 26-35-5-36-34-43-34-25 1 14 25 11 25-63-16-35-19-70-35-78-34-8 0-4 5 8 11 31 15 40 41 10 32-12-3-29-12-37-19-31-25-38-26-32-3 5 21 4 22-11 9-9-7-17-20-17-27 0-8-11-19-24-24-45-17-40-30 11-30 35 0 44-3 33-10-13-9-13-11 0-20 8-5 31-10 50-11s27-3 17-6c-29-7-1-33 37-33 24 0 27-3 16-10-12-8-9-10 13-10 19 0 26-4 21-11-5-8 1-10 19-7 15 3 24 1 21-3-3-5 4-9 15-9 14 0 19-5 15-15-5-11 1-15 24-15 37 0 64-9 57-20-3-4 15-11 40-15 25-3 43-10 40-16-4-5-1-9 6-9s0-13-16-30c-33-34-30-45 9-30 36 13 49 13 40-1-5-9 6-10 39-7 29 4 44 2 41-4-10-16 17-27 42-18 15 6 24 5 26-2 2-6 27-11 55-12 28 0 49-4 47-8-3-5 6-8 20-8 18 0 24-4 20-15-7-19-6-19 46 0 24 8 45 13 48 10s0-5-6-5c-7 0-12-5-12-11 0-8 18-10 55-7 43 4 51 2 38-7-14-11-14-12 0-18 9-3 29-2 46 3 23 6 29 5 25-5-7-16-95-20-1114-46-432-10-938-23-1125-29-895-24-939-25-932-6 4 10 7 24 7 31 0 16 33 48 147 143 28 23 56 42 62 42s18 11 27 25 21 25 27 25c12 0 47 33 168 155 87 89 95 111 41 129-25 9-30 14-21 23 19 19 2 30-83 53-62 17-112 23-198 24-211 1-475-6-498-15-38-15-270-219-394-348-84-87-118-116-118-102 0 25 20 71 32 71 5 0 28 20 53 44 34 34 48 59 64 113 21 71 47 105 106 137 17 10 21 15 10 12-11-2-40-8-65-11-59-9-185-41-239-60-24-8-45-15-46-15-7 0 27 59 40 70 47 39-20 65-165 65h-105l-75-43c-121-71-199-130-296-226-92-93-184-212-184-238 0-9 26-44 59-79l58-64 34 17c19 9 66 31 104 49 39 18 81 40 95 49s51 34 83 55c94 62 238 82 362 50 33-9 61-18 64-20 2-3-18-28-45-57s-67-74-89-100l-40-47-560-16c-686-20-1222-34-1293-35H0l2-202 3-202 160-61c88-34 333-128 545-209s389-151 393-156c16-15-71-395-135-590-53-164-86-238-223-510-305-607-328-713-327-1510 1-256-3-510-9-565-5-55-9-113-9-128-1-16-10-93-22-170-11-78-21-159-20-180 0-20-4-37-9-37s-9-6-9-12c0-10 29-12 120-10 80 2 120 0 120-7 0-8 106-11 334-11h334l5 29c3 16 4 46 2 67-4 32-3 34 4 14 5-14 7-56 5-95l-3-70 9 60c6 39 6 135-2 270-12 239-6 480 16 605 49 273 187 517 486 860 104 119 257 314 315 400 66 99 163 294 265 535 99 234 162 351 281 517 3 5 28-4 55-19s67-30 88-33l40-5 27-107c15-58 47-155 70-215 60-149 111-237 266-454 34-47 256-262 294-284 10-5 57-37 106-70 48-33 138-83 198-111 110-51 317-124 354-124 11 0 22-4 25-9s16-9 28-9c13 0 59-5 103-12 101-17 377-17 475-2 41 7 89 14 105 16 84 11 319 94 455 161 82 40 101 51 184 110 32 22 65 45 75 50 57 33 269 249 335 341 27 38 62 85 76 104 42 56 146 276 184 390 59 177 78 287 83 465 2 88 7 163 11 166 4 4 61-18 127-48s164-75 217-99c54-24 111-44 128-44 20 0 91 33 208 99 97 54 193 107 212 117 32 17 65 19 350 24l315 5 125 75c172 104 173 105 268 91 43-6 124-10 180-9l101 3 193-99c191-98 394-202 641-330 88-46 139-66 164-66 21 0 70 16 120 40 47 22 86 40 88 40s54 24 117 54c62 29 203 95 313 146s243 113 295 137c52 25 172 80 266 124l170 78 64-10c35-5 117-30 182-54 66-25 133-45 149-45s78 20 137 44c171 70 212 80 342 80 136-1 154-5 370-90 186-72 219-76 302-40l54 24 2-71c1-40 4-133 5-207 2-74 9-199 15-276 5-78 7-157 2-175-10-44-48-140-63-159-23-29-34-55-50-120-9-36-24-94-33-130-19-70-27-225-13-251 4-9 2-33-7-58-16-46-9-69 26-94 17-12 19-24 18-88-2-73-2-74 22-74 18 0 25 5 24 20-1 11-2 37-2 58-2 28-6 37-19 37-12 0-8 8 16 28 27 22 33 35 33 65 0 21-5 43-10 50-12 14 20 238 38 269 14 25 14 25-25 32-19 4-35 11-35 16 0 6 10 6 26 0 32-13 54-13 54 0 0 5-18 14-40 20s-40 15-40 20 19 3 42-6c22-8 43-12 46-9s11-4 19-15 20-20 26-20c18 0 67-79 67-107 0-14-6-23-16-23-8 0-12-4-9-10 8-13 70-13 115 0 20 5 51 25 70 45 28 29 34 44 38 90 6 73-8 99-71 129l-50 24 71 7c39 4 75 4 81 1 10-6 87 141 79 149-2 3-15 6-28 7-18 2-25-3-30-22-4-14-10 48-15 138l-8 162-121 1h-121l80 40c44 22 99 45 122 50l41 11 6 91c4 51 10 155 14 232l7 140 80-3c79-4 191-24 537-98 159-34 176-40 167-55-15-29-11-31 19-11 26 19 92 21 92 3 0-4-16-34-36-67-42-70-120-153-189-200-36-25-44-34-29-34 68 0 205 117 275 234 45 75 75 75 99 1 25-80 76-161 144-230 38-38 71-64 73-58s-17 46-43 89c-52 90-114 209-114 222s149-24 169-43c19-17 46-21 36-5-8 13-17 14 126-16 105-22 141-25 239-21 130 5 180 20 318 94 58 32 82 41 82 30s17-14 89-13c55 1 89-3 88-9-1-5 10-10 26-10 15 1 27-3 27-8 0-4 9-5 20-2 12 4 20 2 20-6 0-9 3-9 14 0 11 10 20 10 37 1 12-7 38-10 60-6 24 4 39 2 41-5 3-9 10-9 27 1 23 12 23 11 17-15-7-28-4-28 53-7 9 3 12 1 7-6-5-8 5-12 33-12 22 0 43-5 47-11 3-6 19-9 35-7 16 3 25 0 22-5-4-6 5-7 21-3 18 4 25 3 21-4-9-14 8-13 24 3 10 9 15 9 18 0 2-7 11-9 19-6s14 0 14-7c0-12 47-8 86 7 10 4 12 0 7-13s-3-15 7-9c22 13 72 16 64 3-5-8 4-9 31-4 24 5 40 3 45-3 4-7 19-9 38-5l32 7v3959l-40-32c-42-33-51-30-24 8 9 13 14 25 13 26-2 2-40-14-84-35zm-1941-2654c-13-22-26-38-29-35s-13-11-23-30c-9-19-24-35-32-35s-19-10-26-22c-6-13-13-20-17-17-3 3-13-11-21-31-14-32-18-36-31-25s-18 10-30-6c-8-10-15-22-15-26 0-5-8-8-18-8-11 0-24-11-30-25s-15-25-19-24c-21 4-32-3-38-22-5-15-10-18-15-10s-16-2-34-31c-15-24-25-35-22-25 3 9 1 17-4 17s-12-9-15-21c-4-12-12-18-21-15s-14-1-14-14c0-11-4-19-9-18-6 2-30-19-55-46s-46-43-46-36c0 8-12 2-30-15-16-16-30-25-30-19 0 5-9-2-20-16-10-14-22-25-27-26-22-2-43-18-43-31 0-9-6-13-14-10s-21-8-32-29c-15-28-20-31-25-17-6 15-9 14-20-10-9-20-15-24-21-15-6 10-8 9-8-2 0-19-32-48-47-43-6 2-13-8-17-22-7-28-26-34-27-7 0 14-3 12-17-7-9-14-25-34-35-45-18-21-19-21-13-1 5 17 3 16-14-5-11-14-20-31-20-37 0-18-20-16-20 2 0 8-5 15-11 15-5 0-7 5-4 10 8 13 5 13-43-4-34-12-40-12-36-1 7 18-38 14-62-6-13-11-18-11-21-2-4 10-10 10-26 1-21-10-21-10-7 7s14 17-15 3c-33-17-68-13-44 4 9 6-1 8-31 4s-40-3-30 3c27 18 2 23-32 7l-33-16 31 29c18 16 44 46 59 67 15 22 25 31 22 22-10-29 22-22 33 7 5 14 12 25 15 25 4 0 3-4 0-10-3-5-2-10 3-10 6 0 13 7 16 16 3 8 10 12 16 9 5-3 10 3 10 14 0 14 5 19 15 15 9-4 15 0 15 9s5 19 12 23c8 5 9 1 5-12-5-12 2-8 18 11 14 17 25 34 25 39 0 4 7 6 15 2 8-3 15 0 15 7s9 20 20 30c13 11 20 13 20 4 0-6 10 2 21 20 12 20 26 30 35 26 8-3 14-1 14 3 0 5 7 18 16 29 13 17 16 18 25 5 8-13 11-12 24 4 8 11 15 26 15 33s5 13 12 13c6 0 24 15 39 33 16 17 28 26 29 18 0-9 11-5 34 13 24 18 36 22 39 13 3-8 10-7 26 7 11 11 21 15 21 11s8-1 18 8c10 10 21 14 24 11 4-3 9 4 13 17 6 16 9 18 16 8 6-11 9-10 15 4 3 9 10 17 16 17 5 0 6-4 3-10-13-20 5-9 34 23 17 17 31 26 31 20 0-19 18-16 24 5 3 9 15 23 27 30 12 8 18 9 14 3-12-20 9-11 37 16 17 16 28 21 28 13 0-9 9-5 26 10 21 21 27 22 35 10s13-10 33 14c13 16 29 26 34 22 6-4 27 8 47 25 22 20 33 25 29 14-6-15-4-16 15-6 12 7 25 19 28 27 5 13 7 13 15 2 8-10 11-10 15 0 2 6 9 10 14 6 5-3 12 2 15 10 3 9 11 16 17 16s19 8 29 17c18 16 18 16 12-3-5-14 2-11 26 13 25 24 36 29 45 20 10-10 8-20-11-52zm-7789-25c-3-5-14-10-23-9-14 0-13 2 3 9 27 11 27 11 20 0zm45 0c0-5-5-10-11-10-5 0-7 5-4 10 3 6 8 10 11 10 2 0 4-4 4-10zm57-6c-3-3-12-4-19-1-8 3-5 6 6 6 11 1 17-2 13-5zm6473-988c-11-26-20-53-20-60 0-6-9-29-20-51s-18-47-15-56c3-10 1-20-5-24-8-5-11 16-8 71 1 44-1 102-5 131l-9 52 49 3c28 2 49-1 51-8 1-6-6-32-18-58zM1690 5536c0-3-5-8-12-12s-8-3-4 4c7 12 16 16 16 8zm-15-95c28-11 64-25 80-32 17-6 57-22 90-34 69-25 66-12 39-165-34-197-84-428-109-505-65-200-217-459-373-640-99-113-260-272-357-350l-60-49-3 88c-8 238 84 619 234 964 107 248 375 742 402 742 4 0 30-9 57-19zM650 2057l245-2-262-3c-258-2-261-2-256 18 5 18 7 18 17 5 9-12 51-15 256-18zM3232 9248c14-41 189-59 242-25 14 10 26 22 26 27 0 6-54 10-136 10-104 0-135-3-132-12zM93 8841c-9-14-9-21 0-30 21-21-19-12-57 14l-36 24v-349c0-327 1-350 18-350 9 0 37-9 61-21 31-13 47-16 51-9 5 8 18 5 41-9 36-22 74-27 83-12 4 5 0 11-6 14-10 3-10 8-2 16 8 9 18 9 38 1 35-13 76-13 76 0 0 6-5 10-12 10-6 0-9 2-6 5s31-4 62-16c61-22 78-20 55 7-13 16-12 16 18 1 37-19 47-21 38-7-10 16 5 12 35-10 16-11 31-16 34-11 4 5 2 12-4 16-5 3-10 10-10 15s29-2 65-15c36-14 70-25 75-25 18 0 10 17-12 28-19 9-20 11-5 11 10 1 32-6 49-15 30-16 31-15 25 6-5 20-4 20 28-4 39-30 47-32 39-11-7 18 0 19 28 4 25-13 35-5 18 16-10 12-3 11 31-4 25-12 48-16 53-11s16 6 25 3c9-2 3 7-14 21l-29 25 63-19c95-30 130-24 79 14-17 11-8 10 32-5 99-38 102-38 73 9-10 17-11 22-3 15 20-18 43-16 36 2-4 13-2 13 14 5 10-5 22-15 25-20 10-16 28-11 21 6-5 12-2 15 11 9 10-4 27-10 38-13l20-5-20 23-20 23 42-22c29-15 51-19 70-15l26 7-24 20c-20 17-20 19-4 13 42-16 125-30 132-22 4 4-1 14-11 22-32 23 3 16 59-11 90-45 88-29-11 78-78 83-123 117-158 117-20 0-20 0 0-15 30-23 3-17-42 8-22 13-50 26-62 30-20 5-22 2-16-16 6-19 3-18-25 8-24 22-34 26-40 17-6-10-10-10-21 3-18 21-33 19-27-5 4-17-1-16-55 11-57 29-60 29-55 10 7-27-7-27-50 0-27 17-36 19-48 9s-13-16-4-26c9-11 7-14-10-14-12 0-44 21-72 47-44 41-49 43-39 19 14-38 13-42-8-24-9 9-46 32-82 51-91 49-90 69 9 122 105 57 116 84 49 125-35 21-48 19-29-4 23-28-9-29-50-1-42 27-62 27-39 0 16-19 1-19-24 0-26 20-37 19-29-2 4-12-5-8-25 11-25 23-32 26-32 13 0-15-4-14-40 4-47 25-67 17-31-12 35-29 15-23-56 16-77 42-89 44-66 8l17-28-30 27c-16 15-38 27-49 26-11 0-28 3-39 7-15 7-17 5-12-13 7-19 3-19-46 8-60 34-88 40-68 15 23-28 1-28-40-1-22 14-41 26-42 26-2 0-8-8-15-19zM1865 7800c-68-5-69-6-40-19 32-13 101-9 117 7 15 15-1 18-77 12zM1590 7765c16-20 121-17 128 3 3 9-15 12-68 12-64 0-71-2-60-15zM2094 7715c11-8 36-15 56-15s45 7 56 15c17 13 12 14-56 14s-73-1-56-14zM1971 7681c-15-10-7-16 34-25 34-7 84 4 85 19 0 13-101 18-119 6z"/>
    <path d="M2690 7394c-14-2-52-9-85-15-61-11-193-65-183-75 3-3 41 4 84 15 146 37 235 44 453 38 113-3 220-9 236-12 23-5 26-4 14 4-43 28-429 61-519 45z"/>
    <path d="M2795 7320c-49-4-130-15-178-24-91-17-253-71-263-87-7-12-10-12 69 10 156 45 267 56 557 56 205-1 307-5 399-18 125-18 165-17 95 2-169 45-505 75-679 61zM1715 7240c-38-4 14-7 145-9 189-1 245-6 293-26 13-5 16-3 11 8-3 9-19 20-36 26-33 12-311 12-413 1zM3484 7144c31-10 50-22 53-34 4-16 9-18 24-9 42 22 13 44-71 53l-55 6 49-16zM2458 7143c6-2 18-2 25 0 6 3 1 5-13 5s-19-2-12-5zM1278 7123c-56-9-26-23 47-23 43 0 75 4 75 10s-12 10-27 10c-16 0-37 2-48 4s-32 1-47-1zM1160 7080c0-6 28-10 65-10s65 4 65 10-28 10-65 10-65-4-65-10zM4600 7040c0-24 130-26 138-2 3 9-15 12-67 12-40 0-71-4-71-10zM4454 6975c30-23 126-18 126 6 0 5-33 9-72 9-66-1-71-2-54-15zM4770 6895c0-12 56-25 82-20 47 11 31 25-27 25-30 0-55-2-55-5zM4590 6871c0-12 57-22 86-15 43 11 26 24-31 24-30 0-55-4-55-9zM4995 6830c3-5 26-10 50-10s47 5 50 10c4 6-15 10-50 10s-54-4-50-10zM4895 6790c3-5 26-10 50-10s47 5 50 10c4 6-15 10-50 10s-54-4-50-10zM12890 5391c0-11-5-21-12-23-7-3-12-37-14-96-2-51-5-96-9-101-3-5-2-12 3-15 4-2 9-51 10-107 2-107 8-122 47-117 14 2 22 13 26 38 3 19 14 61 23 93 24 80 20 304-6 330-24 24-68 23-68-2zM12870 4917c0-8 10-17 23-21 33-9 37-8 37 9 0 8-6 15-14 15s-21 3-30 6c-10 4-16 1-16-9zM13800 4780c0-5 5-10 10-10 6 0 10 5 10 10 0 6-4 10-10 10-5 0-10-4-10-10zM15845 4740c-3-5-1-10 4-10 6 0 11 5 11 10 0 6-2 10-4 10-3 0-8-4-11-10zM11103 4613c4-3 10-3 14 0 3 4 0 7-7 7s-10-3-7-7zM14760 4590c0-5 5-10 11-10 5 0 7 5 4 10-3 6-8 10-11 10-2 0-4-4-4-10zM440 4530c0-5 5-10 10-10 6 0 10 5 10 10 0 6-4 10-10 10-5 0-10-4-10-10zM9270 4530c0-5 5-10 10-10 6 0 10 5 10 10 0 6-4 10-10 10-5 0-10-4-10-10zM12520 4491c0-5 5-13 10-16 6-3 10-2 10 4 0 5-4 13-10 16-5 3-10 2-10-4zM11765 4430c-3-5-1-10 4-10 6 0 11 5 11 10 0 6-2 10-4 10-3 0-8-4-11-10zM9620 4330c0-5 5-10 10-10 6 0 10 5 10 10 0 6-4 10-10 10-5 0-10-4-10-10zM13930 4200c0-5 5-10 10-10 6 0 10 5 10 10 0 6-4 10-10 10-5 0-10-4-10-10zM13270 4140c0-5 5-10 11-10 5 0 7 5 4 10-3 6-8 10-11 10-2 0-4-4-4-10zM10130 4060c0-5 5-10 10-10 6 0 10 5 10 10 0 6-4 10-10 10-5 0-10-4-10-10zM13020 3979c0-5 5-7 10-4 6 3 10 8 10 11 0 2-4 4-10 4-5 0-10-5-10-11zM12385 3961c-3-5-1-12 5-16 5-3 10 1 10 9 0 18-6 21-15 7zM12390 3871c0-27 5-53 10-56 6-4 10 13 10 44 0 27-4 53-10 56-6 4-10-13-10-44zM9223 3843c4-3 10-3 14 0 3 4 0 7-7 7s-10-3-7-7zM2213 3813c4-3 10-3 14 0 3 4 0 7-7 7s-10-3-7-7zM12401 3784c0-11 3-14 6-6 3 7 2 16-1 19-3 4-6-2-5-13zM10525 3760c-3-5-1-10 4-10 6 0 11 5 11 10 0 6-2 10-4 10-3 0-8-4-11-10zM12406 3507c1-139 7-285 13-325s8-91 5-114c-6-32-4-40 7-36 20 7 23 84 8 218-7 63-12 131-10 150 8 65-8 348-19 355-3 2-5-109-4-248zM13530 3709c0-5 5-7 10-4 6 3 10 8 10 11 0 2-4 4-10 4-5 0-10-5-10-11zM15570 3670c0-5 5-10 10-10 6 0 10 5 10 10 0 6-4 10-10 10-5 0-10-4-10-10zM11393 3613c4-3 10-3 14 0 3 4 0 7-7 7s-10-3-7-7zM173 3463c4-3 10-3 14 0 3 4 0 7-7 7s-10-3-7-7zM8393 3453c4-3 10-3 14 0 3 4 0 7-7 7s-10-3-7-7zM11440 3360c0-7 3-10 7-7 3 4 3 10 0 14-4 3-7 0-7-7zM15230 3360c0-7 3-10 7-7 3 4 3 10 0 14-4 3-7 0-7-7zM9353 3263c4-3 10-3 14 0 3 4 0 7-7 7s-10-3-7-7zM15920 3229c0-5 5-7 10-4 6 3 10 8 10 11 0 2-4 4-10 4-5 0-10-5-10-11zM10610 3169c0-5 5-7 10-4 6 3 10 8 10 11 0 2-4 4-10 4-5 0-10-5-10-11zM11650 3100c0-7 3-10 7-7 3 4 3 10 0 14-4 3-7 0-7-7zM3063 3013c4-3 10-3 14 0 3 4 0 7-7 7s-10-3-7-7zM12416 3008c-13-39-18-105-17-209 1-64-3-128-8-142-6-15-13-65-15-112-3-47-8-90-11-96-9-13 4-69 15-69 12 0 31 72 30 112-1 18 3 60 9 93 12 63 25 232 22 275-1 14-2 53-2 87 0 57-13 92-23 61zM12645 2890c-3-5-1-10 4-10 6 0 11 5 11 10 0 6-2 10-4 10-3 0-8-4-11-10zM5350 2850c0-5 5-10 10-10 6 0 10 5 10 10 0 6-4 10-10 10-5 0-10-4-10-10zM15140 2790c0-5 5-10 11-10 5 0 7 5 4 10-3 6-8 10-11 10-2 0-4-4-4-10zM12210 2639c0-5 5-7 10-4 6 3 10 8 10 11 0 2-4 4-10 4-5 0-10-5-10-11zM3315 2500c3-5 8-10 11-10 2 0 4 5 4 10 0 6-5 10-11 10-5 0-7-4-4-10z"/>
    <path d="M12300 2365c-1-58-2-59-17-37-20 28-38 29-23 1 16-30 2-38-20-11-26 31-33 27-15-8 22-43 19-45-31-15-33 20-49 24-57 16s-7-11 4-12c7 0 30-19 49-42 26-30 30-39 15-33-11 5-29 11-40 14-18 5-19 4-5-13s12-17-29-10c-49 8-50-5-1-25 32-13 31-35-1-25-10 4-19 2-19-3s15-13 33-17l32-7-25-11c-14-6-31-17-38-24s-22-13-33-13c-10 0-19-4-19-10 0-5 21-10 47-10 43 0 45-1 27-15-10-8-27-15-37-15s-16-4-13-9c4-5 20-5 41 2 41 12 57 3 29-18-19-14-19-14 2-15 11 0 26 6 34 13 12 10 12 9 1-5-11-15-11-18 0-18 8 0 3-11-12-27-49-57-53-80-5-33l47 45-16-37c-22-53-19-57 14-18l29 35-5-30-5-30 22 25 22 25-5-25c-2-14-8-33-12-42-4-10-3-18 3-18 5 0 18 20 29 45l18 45 8-38c4-20 9-47 10-59 4-41 16-35 23 13 6 43 8 46 20 29 13-18 14-17 15 11 1 19 3 22 6 9 2-11 12-31 22-44l18-24-2 46c-1 54 11 50 47-14 24-43 44-54 26-14-13 30-5 43 17 25 12-10 15-10 15 3 0 9-4 18-9 22-6 3-16 19-25 35l-15 30 29-20c15-11 32-20 38-20 5 0 15-7 22-15 7-9 15-13 18-10s-14 28-39 57c-24 28-36 49-26 45 9-4 24-10 34-14 11-4 14-3 9 5s2 10 26 6l33-6-40 36-40 35 48 1c30 0 46 4 42 10-3 6-15 10-27 10-13 0-18 5-15 14 3 7 0 13-6 13-37-1-57 4-52 13 3 6 18 10 33 10s45 9 67 19l40 19-70 2c-58 1-66 3-47 12 22 11 30 28 12 28-19 0-10 15 23 38 37 25 25 29-27 7-43-18-46-11-10 22 47 43 6 38-50-7-18-14-18-14-7 8 13 24 3 30-17 10-14-14-17 3-3 18 5 5 12 25 16 44l6 35-20-25c-11-14-21-29-21-34 0-4-6-6-14-3-7 3-19 0-26-6-10-10-11-3-7 31 7 58-13 51-31-11-13-46-32-56-32-16 0 10-7 19-15 19s-21 15-29 33l-14 32-2-60zm87-151c10-26-14-41-35-21-15 16-15 19-2 27 21 14 30 12 37-6zm-3-100c3-26 6-62 6-80 0-30-3-34-26-34-26 0-27 1-20 53 3 28 6 64 6 80 0 47 27 32 34-19zM13260 2270c0-5 5-10 11-10 5 0 7 5 4 10-3 6-8 10-11 10-2 0-4-4-4-10zM4575 2060c-3-5-1-10 4-10 6 0 11 5 11 10 0 6-2 10-4 10-3 0-8-4-11-10zM2340 1960c0-5 5-10 10-10 6 0 10 5 10 10 0 6-4 10-10 10-5 0-10-4-10-10zM6000 1929c0-5 5-7 10-4 6 3 10 8 10 11 0 2-4 4-10 4-5 0-10-5-10-11zM1205 1900c3-5 15-10 26-10 10 0 19 5 19 10 0 6-12 10-26 10s-23-4-19-10zM5085 1790c-3-5-1-10 4-10 6 0 11 5 11 10 0 6-2 10-4 10-3 0-8-4-11-10zM15426 1791c-4-5-2-12 3-15 5-4 12-2 15 3 4 5 2 12-3 15-5 4-12 2-15-3zM3600 1500c0-5 5-10 10-10 6 0 10 5 10 10 0 6-4 10-10 10-5 0-10-4-10-10zM4510 1480c0-5 5-10 10-10 6 0 10 5 10 10 0 6-4 10-10 10-5 0-10-4-10-10zM2990 1430c0-5 5-10 10-10 6 0 10 5 10 10 0 6-4 10-10 10-5 0-10-4-10-10zM1373 1403c4-3 10-3 14 0 3 4 0 7-7 7s-10-3-7-7zM5563 1103c4-3 10-3 14 0 3 4 0 7-7 7s-10-3-7-7zM5125 860c-3-5-1-10 4-10 6 0 11 5 11 10 0 6-2 10-4 10-3 0-8-4-11-10z"/>
  </g>
  <g fill="#162840">
    <path d="M2760 9525c38-46 200-45 250 1 12 12-7 14-124 14-121 0-137-2-126-15zM15900 9340c-59-32-140-63-147-56-4 4 6 18 22 31l30 25-28-10c-16-6-39-17-50-25-29-20-40-19-34 5 7 28-2 25-40-12-32-31-58-34-33-3 17 21 8 19-35-6-41-25-57-19-30 11 24 26 11 25-33-2-20-12-54-23-76-24l-41-2 35 31c20 18 26 28 15 23-48-20-156-56-165-56-18 0-11 25 11 38 12 7 18 16 15 19s-40-13-82-36-79-40-81-37c-2 2 5 23 17 45l21 41-46-35c-29-22-58-35-76-35-29 0-39 13-19 25 6 4 5 11-2 19-10 11-21 9-57-10-62-33-104-31-69 4 21 21-4 13-70-23-35-20-66-34-69-31-3 2 0 14 7 25 14 28 6 26-35-5l-33-25 5 23c5 20 0 18-34-15-43-41-66-36-37 8 15 23 9 21-67-20-101-54-142-61-89-15l35 30-32-11c-17-6-39-19-49-30-23-25-34-24-34 3 0 21-2 20-33-10-38-37-51-41-42-11l7 22-30-22c-42-29-59-28-38 4s17 31-37-5c-47-31-67-37-67-20 0 7-6 7-20 0-28-15-25-2 6 22 39 32 23 31-49-2-37-16-79-30-94-30h-27l30 31c28 30 28 31 4 19-14-7-51-28-83-47s-60-33-63-30 2 19 11 37c25 49 10 48-41-4-26-25-48-46-50-46s-4 12-4 28c-1 27-1 26-20-9-11-20-33-48-50-63-43-36-94-34-58 2 9 9 8 12-5 12-9 0-17 5-17 11s-18-5-40-25c-46-41-88-51-69-15 15 29 1 20-75-45l-59-51 6 35 7 34-29-28c-26-25-30-26-33-10-2 14-11 7-33-29-34-53-50-61-42-20 5 26 4 26-9 8-32-43-12-79 61-109 46-19 75-44 75-63 0-26-71-91-138-126-150-78-460-176-717-227-104-20-100-14-45-81 28-33 50-62 50-65 0-10-249 49-282 67-17 9-18 1-18-109 0-188-32-331-95-432-28-45-37-44-62 3-22 42-30 264-13 378 6 44 10 83 8 85s-23-23-46-55c-80-109-292-311-292-278 0 52 66 212 120 292 44 65 45 71 16 47-38-29-50-28-42 4l7 27-26-31c-30-36-109-77-131-68-13 5-14 9-5 20 11 13 5 46-8 46-3 0-24-12-46-25-56-35-109-33-73 3 22 22-6 12-79-28-72-39-84-38-62 2 12 23 8 21-45-15l-28-20 7 24c6 21 3 19-32-13-54-52-83-51-46 1 19 28 22 29-89-29-89-46-125-48-73-4 29 24 29 25 5 18-14-4-40-18-57-32l-33-24v57l-35-37c-38-43-50-47-42-18 6 25 6 25-37-1-30-17-36-18-36-6 0 9 5 19 10 22 6 3 10 10 10 15s-23-7-51-26c-52-35-69-41-69-25 0 5-10 7-22 4-22-6-21-4 6 25l29 31-82-35c-44-20-91-34-103-32-22 3-22 4 7 31 16 15 26 27 22 27-13 0-136-70-143-81-3-5-9-9-15-9-15 0-10 33 12 69 11 18 18 35 16 37s-22-9-45-26c-50-36-66-38-56-8 5 18-3 14-40-19-62-55-133-72-108-27 7 13 6 22-4 31-11 12-19 10-51-11-53-36-117-34-81 2 23 23-8 12-76-28-71-42-90-44-67-9 19 31 7 33-27 4-37-31-42-31-35-2 5 18-1 16-35-17-44-42-63-42-44-1 6 14 10 25 7 25-2 0-28-14-57-31-60-36-128-62-137-53-3 3 1 9 9 14s24 16 35 25c19 16 19 16-10 10-16-4-39-14-50-24-39-35-49-36-41-7 9 35 1 33-35-9-35-40-54-45-44-13l7 21-35-21c-43-27-50-27-41 0l6 21-38-23c-24-14-58-24-88-26-54-2-193-66-211-97-18-32 31-62 142-87 54-11 113-28 131-36l34-15-40-43c-22-23-47-55-57-70s-23-25-30-22c-7 2-25-4-41-15-34-22-56-24-52-5s-7 21-43 5c-24-9-32-10-38 0-6 9-17 7-44-9-33-20-37-20-37-5 0 14-3 15-15 5-8-7-15-9-15-5s-11 0-25-9c-30-20-36-20-28 0 4 11-8 8-45-13-28-15-54-24-58-20-5 4-2 12 6 17 8 6 10 10 4 10-5 0-16-6-23-12-11-11-14-10-18 0s-11 8-29-9c-16-15-24-18-24-9 0 11-3 11-12 2-17-17-31-15-25 3 5 11-1 10-25-5-35-21-66-17-47 6 8 10-3 8-36-6-26-11-60-22-75-23-14-2-37-11-50-20-26-18-65-23-55-7 13 20-6 30-28 15-25-17-62-20-52-4 4 6-11 1-34-10-49-25-55-26-47-5 5 14 4 15-9 4-9-7-18-10-22-6-4 3-18-4-31-16l-25-23 6 22 5 23-42-25c-44-26-82-33-70-14 4 8 0 8-15 0-16-9-21-9-21 0 0 8-5 7-16-2-20-16-74-21-74-7 0 6-7 5-15-2s-29-14-46-16c-28-3-30-2-18 12 12 15 10 15-25 0-21-9-45-16-53-16-13 0-13 2-2 17 9 11-2 8-33-10-48-28-58-24-37 15 12 22 8 21-43-14-33-23-42-23-34-1 6 14 3 14-16-3-31-29-62-44-89-44-17 0-19 3-10 14 25 30-11 28-54-2-32-23-43-26-39-14 3 9-18-8-46-38-53-55-60-49-24 21l13 25-58-27c-41-20-73-46-107-86-27-32-56-66-65-75-12-14-14-32-11-73 3-40 0-62-12-80-30-45-63-23-50 33 6 24 0 21-49-27-55-53-56-55-50-100 4-36 2-50-12-61-14-12-18-12-26 1-5 8-7 27-4 43 4 22 2 27-10 22-8-3-22-9-30-12-25-10-17 13 15 39 35 30 37 37 11 37-50 0-71 39-32 60 29 15 39 13 67-15l25-25 57 57 57 58-33 3c-25 3-32 7-28 19 3 8 6 17 6 19 0 9 47 3 57-7 8-8 21 5 48 47 20 33 58 80 83 107 48 49 48 67 0 20-31-29-46-26-29 6 10 18 3 16-56-14-80-41-111-46-68-10 39 32 20 32-28 0-29-20-37-22-37-10 0 22-9 19-32-10-24-31-42-33-32-3l6 21-28-22c-31-24-46-13-22 16 7 10-1 7-21-7-19-13-50-25-69-27-34-2-34-2-17 17 23 25 18 25-36 0-24-11-55-20-68-20-23 0-24 1-6 20 27 30 6 24-54-15-30-20-56-33-60-30-3 4 4 24 16 46 20 36 20 38 2 29-10-6-21-21-25-33-9-36-90-80-159-87-59-5-59-5-68-43-9-36-15-41-84-73-64-29-87-34-147-34-97 0-124 18-161 104-26 62-45 80-60 56-3-5-16-10-29-10s-42-14-64-30c-40-29-42-29-42-9 0 21-1 20-28-6-43-43-98-60-87-26 9 30-10 34-52 11-55-29-82-24-50 9 6 7-16-1-50-18-74-37-76-37-67-8l7 22-23-20c-18-15-24-17-28-7-3 10-15 4-39-20l-36-33 5 28c3 15 4 27 3 27s-26-13-56-30c-30-16-63-30-74-30-18 0-18 2 5 20 18 14 21 20 9 20-9 0-28-9-42-20-30-24-37-25-37-4 0 8-5 12-11 9-6-4-8-13-5-21s-7-21-27-31l-32-18 48-3c26-2 47-7 47-13 0-5-6-9-12-10-24-1 27-18 56-18 23-1 26-4 17-14-15-18-4-27 33-27 24 0 27-3 16-10-12-7-8-10 15-10s27-3 15-10c-11-7-5-8 19-3 25 4 32 3 27-5s2-12 18-12c18 0 24-4 20-15-5-12 4-15 47-15 49 0 52-1 33-15-18-15-17-16 15-9 23 4 31 3 27-5-5-7 2-11 16-11 18 0 20-2 8-10s-12-10 5-10 16-3-10-24c-36-29-28-43 16-27 44 15 58 13 34-6-19-14-17-15 27-10 35 5 47 3 52-8 4-11 14-13 37-8 19 3 30 2 26-3-3-5 11-10 31-10 78-2 93-4 88-13-4-5 3-7 14-4 16 4 19 2 13-12-5-15-3-17 18-11 13 3 38 9 54 12 29 5 29 5 11-10-19-16-19-16 5-16 13 0 40 4 58 10 37 10 55 5 31-10s11-23 44-10c24 9 27 8 22-5-4-12 0-14 21-9 19 5 24 4 18-6-4-6 5-4 21 6 26 18 28 18 21 1-7-20-3-21 24-6 11 5 28 8 37 6 14-3 12-6-8-16-23-10-22-11 15-7 22 3 51 8 65 12 23 7 24 6 10-11s-13-18 5-11c11 5 34 10 52 11 25 3 31 0 26-13-5-12-2-14 13-8 10 4 35 10 54 13 28 4 32 2 20-7s-5-10 30-8c39 3 45 0 43-16-1-17 4-18 57-12 39 5 59 3 62-4 3-9 18-9 56-2 43 8 50 7 41-4-16-19 10-28 45-14 37 14 41 13 25-6-11-13-9-14 16-8 22 5 26 4 20-6-6-9-4-11 5-5 7 4 35 9 64 11 49 3 50 3 26-12l-25-15 33 5c17 3 46 9 62 12 26 6 29 4 24-11-7-16-5-16 25-1 17 9 31 12 31 7s10-7 22-3c15 4 19 2 13-7-7-13-4-13 80 5 11 2 14 1 8-2-27-12-11-24 30-22 35 3 42 0 39-14-3-22 22-23 57-4 20 11 27 11 38 1 10-11 21-11 59 1 61 18 72 18 48-2-18-14-15-15 39-10 53 4 57 3 45-11-12-15-9-16 30-11 28 4 40 3 36-4-5-7 2-9 20-4 20 5 26 4 20-5-5-9-2-10 9-6 10 4 24 10 34 14 11 4 14 3 9-5-9-15-5-15 28-2 15 5 28 5 31 0 3-4-3-11-12-14-10-3 0-3 22-1s51 7 65 11c23 7 24 6 10-11s-13-18 5-11c11 5 34 10 52 11 25 3 31 0 26-13-5-12-2-14 13-8 10 4 32 10 48 13 22 5 27 3 21-6-6-10 3-12 36-9 37 2 44 0 41-14-2-14 4-18 26-18 15 0 34 6 41 13 10 9 15 9 18 0 3-8 13-8 38 3 49 20 68 18 60-6-6-18-4-19 26-8 24 8 33 8 39-2 6-9 22-11 56-6 31 4 44 3 35-2-19-14 4-25 35-18 14 4 24 2 24-4 0-7 8-9 21-5 16 5 19 4 14-5-6-9-4-11 5-5 7 4 30 9 52 10 33 2 37 0 26-13s-10-14 7-9c51 15 98 20 91 8-9-14-1-14 25-1 12 7 19 7 19 1s7-8 15-5c8 4 15 1 15-6 0-6 8-9 18-6 57 17 73 18 70 5-3-15 3-16 41-4 21 6 23 5 18-15-5-21-4-22 48-15 35 4 55 2 60-5 6-10 33-8 90 7 20 5 20 5 1-10-19-14-19-15 2-21 12-4 31-2 43 5 18 9 21 9 17-2-4-10 3-14 22-14 16 0 32 3 36 8 11 11 26 9 19-3-4-6 7-8 27-4 26 5 30 3 18-6s-6-10 27-6c23 3 50 9 60 13 16 6 17 5 3-12s-13-18 5-11c35 14 74 14 68 0-4-10 3-11 29-4 43 13 61 13 52-1-4-7 6-10 32-7 34 3 39 0 36-16s1-18 25-12c15 4 37 8 48 8s34 4 51 9c40 12 173 21 156 10-22-13 14-22 44-11 18 7 23 7 18-2-5-8 0-9 14-6 12 4 20 2 16-3-8-13 10-11 24 3 9 9 12 9 12 0 0-8 9-10 28-6 21 4 24 3 12-5-13-10-13-11 0-11 8 0 32 4 52 9 31 7 36 6 31-7-5-11-3-13 7-7 21 13 72 16 65 4-5-7 5-8 29-4 24 5 36 4 36-4s12-10 37-5c32 6 35 5 29-11-5-15-2-16 26-11 61 11 88 12 88 3 0-4 9-6 20-3 36 10 65 16 52 10-15-7-6-25 11-19 7 2 27 6 46 9 27 5 31 3 22-7-16-20-3-27 26-16 31 12 36 11 27-2-4-8 1-9 16-4s20 4 16-4c-10-15 7-14 22 1 8 8 12 8 12 1 0-6 12-8 28-6 22 4 24 2 12-7s-9-10 15-5c17 3 39 9 49 12 17 5 16 1-7-27-15-18-26-34-24-36s25 3 50 12c26 9 52 13 59 11 8-3 6-6-4-6-10-1-18-6-18-12 0-12 62-8 105 6 20 7 20 6 1-9-17-14-17-16-3-22 9-3 31-1 48 5 26 9 30 8 25-4-4-12 0-14 21-9 18 5 24 4 19-5-11-17 5-13 26 6 15 13 21 14 27 5 6-10 15-10 35-2 40 15 44 12 16-10-30-24-19-25 46-5 62 19 69 19 54 0-10-12-10-15 3-15 9 0 18 4 21 9s21 9 40 9c26 0 33-4 29-14-4-12 2-11 37 1 54 19 61 19 53-1-5-14-2-16 23-9 51 13 59 12 57-12-3-28 11-29 60-4 31 16 37 16 37 4 0-11 6-13 23-9 64 17 72 18 57 6-12-9-5-10 31-8 37 2 45 0 41-11s2-13 27-8c18 4 30 3 27-2s24-7 61-6c47 3 62 1 52-6s1-8 35-4c37 5 46 4 40-6-5-9-2-10 12-5 30 12 64 14 64 4 0-5 16-6 36-2 29 5 35 4 29-6s0-11 29-6c30 6 36 4 36-10 0-13 6-15 28-10 15 4 40 8 56 9 27 2 29-1 34-38 6-40 7-95 3-190-3-90 6-347 17-490 7-76 10-148 7-160-21-77-42-134-60-160-28-39-57-120-71-200-2-11-13-56-25-100-18-68-19-90-11-160 7-60 6-90-4-119-15-45-8-65 29-85 15-8 23-19 20-27-7-20 3-17 37 8 23 17 30 30 30 56 0 18-4 42-10 52-11 21 2 137 26 231 18 71 19 66-16 73-16 3-30 10-30 15 0 6 12 6 32 0 18-5 36-5 40-1 5 5-10 14-32 21-22 6-40 16-40 21 0 6 10 6 26 0 40-16 64-12 74 13 8 19 9 17 6-11-4-28 0-35 25-47 34-18 69-81 69-126v-32l52 6c90 11 148 74 148 159 0 43-4 54-34 84-21 21-44 34-59 34-14 0-28 4-31 9-6 9 64 21 126 21 38 0 39 1 73 72 35 72 35 73 13 81-24 8-37-4-39-38-4-52-17 93-18 197l-1 117-122 3-121 3 53 29c30 16 83 39 119 51l66 22 6 64c4 35 10 142 14 237l7 172h-35c-20 0-39 5-43 11-5 8 6 10 35 7 29-2 41 0 41 9 0 8-13 13-35 13-19 0-35 5-35 11 0 7 14 10 35 7 35-4 43 5 27 29-6 10-17 10-42 3-43-12-43-12-35 0 9 14-11 12-23-2-5-7-13-36-15-64-7-56-44-179-64-209-7-11-13-33-13-50 0-16-4-36-9-43-5-8-11 36-14 110-8 168-8 168-71 168-41 1-48 3-32 11 10 6 33 9 52 6s34-3 34 1c-1 18-18 31-50 35l-35 4 38 1c37 2 42 7 31 36-4 11-14 13-36 9s-29-3-24 5c10 16-26 16-43 0-8-7-6-1 4 15 9 15 21 27 25 27s20 18 36 41c15 23 30 36 32 30 6-19 22-12 33 17 6 15 13 22 16 15 5-13 43 20 43 38 0 5 4 8 9 5s14 1 21 9 16 13 20 10c5-3 18 11 31 31 16 27 24 32 30 22 7-10 9-10 9 3 0 23 36 55 42 37 3-8 12 1 22 20 11 22 22 32 32 28 9-4 19 4 26 19 9 20 14 22 30 14 16-9 21-6 31 20 6 17 17 31 24 31s17 9 23 20 20 25 31 31c15 8 19 8 15 0-13-21 10-11 34 14 23 24 47 35 35 15-11-18 11-11 30 10 10 11 21 17 26 15 4-3 10-1 14 5s10 8 15 5c4-3 11 2 14 11 3 8 10 13 15 10s14 1 21 9c15 18 34 20 25 3-4-7 10 5 29 26 29 32 36 36 37 20 0-18 1-18 8-1 4 10 11 18 15 17 5-1 13 4 18 12 7 10 11 10 14 1 3-7 16 0 34 20 18 19 30 26 30 18 0-10 7-8 25 9 20 19 27 21 40 10s18-10 30 6c8 10 15 23 15 27 0 5 8 6 18 3 12-4 28 4 47 24 31 32 51 39 41 15-8-23 12-18 24 6 7 12 18 18 26 15s14-1 14 4c0 6 7 10 15 10s15 5 15 11 6 9 14 6 17 1 20 9c3 9 12 14 19 11 6-2 26 6 44 19 30 23 32 23 38 6 8-26-44-119-56-100-6 10-9 8-9-7 0-11-7-31-16-44-13-18-18-20-25-10-6 10-11 5-20-18-6-18-15-30-20-27s-12-3-16-13c-3-10-13-26-21-36-12-13-17-15-23-5s-12 7-24-9c-9-13-23-23-31-23s-19-11-25-24c-7-14-22-27-35-30-12-3-26-16-29-27-5-14-10-18-14-10-5 8-17-2-35-29-27-40-43-53-32-24 3 8 2 12-4 9s-10-13-10-21-7-14-15-14-15-7-15-16c0-8-5-12-10-9-6 3-13-1-16-9-3-9-11-16-18-16-6 0-20-13-29-30-18-30-37-40-37-18 0 6-13-1-30-17-16-16-30-25-30-19 0 5-9-6-20-24-11-17-23-31-27-30-16 3-43-15-43-29 0-8-6-13-12-10-7 2-24-12-37-32-16-23-26-30-29-22-3 10-9 6-18-10s-14-19-15-9c0 8-4 4-8-10s-13-24-19-23c-7 2-12-2-12-7 0-6-7-10-15-10s-15-4-15-10c0-5-10-14-22-21-18-10-20-9-15 5 12 30-1 16-32-34-27-43-30-66-7-42 11 10 50 9 57-2 4-5 20-4 38 2 25 9 31 8 31-2s10-12 35-9c28 4 34 2 29-10-5-13 9-15 91-13 53 2 91 0 84-4-17-11 7-23 30-15 10 3 31 1 46-5 18-7 32-7 38-1s15 5 24-5c17-16 36-18 81-4 28 8 33 7 28-6-4-10-2-12 6-8 18 12 70 15 63 4-8-12 1-13 43-1 22 7 30 6 26-1s6-9 30-6c20 2 36 1 36-2s-13-21-28-40c-16-19-46-59-66-88-42-60-34-58 63 13 34 25 65 44 68 42 9-10-81-177-126-233-26-33-72-79-103-104s-55-47-53-49c10-9 101 47 145 89 49 47 146 189 174 252l14 33 1-30c2-46 26-129 59-199 29-62 153-208 166-195 4 4-14 41-39 83-98 166-136 266-135 357l1 44 23-45c24-45 111-135 174-179 52-37 43-16-65 138-47 65-51 76-27 67 8-3 25-1 36 5 12 6 18 7 14 1-8-13 38-21 58-10 10 5 16 5 16-1 0-5 10-7 23-4 18 4 19 3 7-7-12-9-7-10 23-5 21 3 46 9 54 12 13 5 15 2 10-11-5-11-3-15 5-10 6 4 23 8 38 10 24 3 27 0 22-22-4-23-3-24 22-14 36 13 49 13 40-2-5-8 4-10 34-6s42 2 46-8 14-12 31-8c14 3 25 2 25-3 0-11 40-11 58 0 7 5 12 4 12-3 0-6 11-8 28-4 22 4 24 3 12-6s-8-11 20-7c19 3 43 8 53 12 14 6 16 4 10-11-5-13-3-15 8-8 17 11 59 13 59 3 0-4 15-5 34-2s36 1 40-6 15-7 31-1c26 10 41-1 29-21-7-12 7-11 79 5 20 5 27 3 22-5-6-8 7-10 46-5 30 3 48 3 41 0-23-11-2-23 24-14 32 13 37 12 28-1-4-8 1-9 16-4 16 5 20 4 15-5-6-9-3-9 13-1 25 13 35 14 28 2-3-4 7-6 22-4 22 4 24 2 12-7-15-12-5-11 66 6 19 5 25 4 20-5-4-6-3-11 3-11 5 0 12 4 16 10 3 5 12 7 21 3 13-5 12-8-3-26-18-20-17-20 10-13 15 3 39 9 55 12 26 5 27 5 7-11-19-16-17-17 35-10 38 4 50 3 40-4-23-16 13-25 41-11 18 10 21 10 17-1-6-16 38-20 60-6 7 5 12 4 12-2s12-8 32-4c22 4 29 3 24-5-9-15 8-15 52-2 31 8 32 8 20-7-11-15-11-16 7-9 34 13 76 13 71 0-4-9 3-10 27-3 41 12 50 11 42-1-7-11 24-13 49-4 15 6 16 189 16 1975 0 1083-3 1969-7 1969s-19-12-35-27c-32-30-47-25-30 12 6 14 11 25 9 25-1-1-18-9-37-20zM9917 6223c-4-3-10-3-14 0-3 4 0 7 7 7s10-3 7-7zm2623-303c0-5-5-10-11-10-5 0-7 5-4 10 3 6 8 10 11 10 2 0 4-4 4-10zm957-166c-3-3-12-4-19-1-8 3-5 6 6 6 11 1 17-2 13-5zm510-51c-4-3-10-3-14 0-3 4 0 7 7 7s10-3 7-7zM3240 9250c0-21 60-40 127-40 68 0 113 14 121 38 3 9-26 12-122 12-75 0-126-4-126-10zM99 8838c-1-7-1-19 0-25 3-20-33-15-62 7-14 11-28 20-31 20s-6-153-6-340v-339l38-10c21-6 46-17 57-25 28-21 37-20 30 4-6 19-4 19 31-5 41-28 81-41 92-31 3 4 0 11-7 15-12 8-12 11 0 23 12 13 18 13 46 2 18-8 43-14 55-14 21 1 22 2 6 14-31 23-7 25 46 4 28-11 57-23 65-26 11-4 11-1 1 18-11 20-10 22 4 17 9-4 23-10 33-14 11-4 14-3 9 5-11 19 9 14 38-9 32-25 47-18 21 11-23 26-17 25 55-5 33-14 70-25 82-24 23 0 23 0 2 9-12 5-25 13-29 19-9 16 25 13 55-4 32-18 41-18 34 0-9 21 10 19 31-5 22-24 37-26 28-3-5 12-2 15 8 11 55-23 55-23 40-5-22 27-7 30 32 7 24-14 44-19 58-15l22 7-24 20-24 20 25-6c14-4 51-13 83-20 60-15 72-9 35 17-35 24-2 20 66-8 33-13 61-23 63-21s-6 14-17 29c-27 34-25 43 5 23 24-16 25-16 25 4s2 20 37-7c33-26 35-26 24-5-14 26-9 28 25 6 28-19 43-12 24 11-17 20-7 19 42-6 28-14 43-18 46-10 2 6 9 9 15 5 7-3 1 4-12 15-31 28-22 36 21 18 49-20 118-31 118-19 0 6-9 14-20 17s-20 11-20 16c0 12 28 4 84-22 80-38 75-22-21 78-70 72-109 103-129 103-3 0-1-7 6-15 18-22 3-18-65 15-72 35-78 36-70 9 8-23-3-20-38 9-10 9-25 17-35 18-9 1-26 5-37 10-18 7-19 6-6-9 24-29 7-28-50 3-60 33-78 37-59 15 20-24-32-19-65 6-22 18-29 20-36 8-5-8-6-23-3-33 5-15 3-18-11-13-9 4-21 7-26 7s-27 16-48 35c-32 29-38 32-34 15 6-22-9-27-25-7-6 7-40 28-76 46-97 51-98 72-3 121 76 40 97 58 97 81 0 17-44 59-62 59-6 0 0-8 13-18l22-19-21-5c-14-4-38 4-67 23-40 26-44 27-35 8 16-30 7-33-25-7l-27 21 7-24 7-24-29 28c-32 30-45 35-37 12 8-20-3-19-33 5-35 27-67 27-34 0 39-33-4-25-76 15-55 30-62 32-53 14 18-33 2-35-30-4-17 16-30 23-30 17 0-9-5-10-19-2-28 14-33 13-26-9 5-16-4-14-62 16-37 20-62 30-55 22 31-34-5-40-56-9-38 23-42 24-43 8zM1815 7790c3-5 30-10 60-10s57 5 60 10c4 6-18 10-60 10s-64-4-60-10zM1610 7760c18-12 68-12 95 0 14 6 0 9-45 9-45 1-60-2-50-9zM2095 7720c3-5 28-10 55-10s52 5 55 10c4 6-17 10-55 10s-59-4-55-10zM1970 7670c8-5 33-10 55-10s47 5 55 10c10 7-6 10-55 10s-65-3-55-10zM2688 7390c-79-10-168-34-220-61-21-11-38-21-38-23s30 5 67 15c161 45 404 61 586 38 126-15 118-5-10 15-137 20-299 27-385 16zM2720 7309c-87-10-222-43-298-72-63-24-64-32 0-13 25 8 105 24 179 37 176 30 544 32 737 5 68-10 125-16 128-14 6 7-229 47-336 58-113 11-306 11-410-1zM1948 7240c79-5 157-13 174-19 37-13 45-9 22 10-13 11-57 14-178 15l-161 2 143-8zM3483 7243c4-3 10-3 14 0 3 4 0 7-7 7s-10-3-7-7zM2740 7211c-80-4-152-10-160-15-44-28-229-196-351-319l-139-140v35c0 29 7 42 35 67 20 17 40 31 45 31 14 0 57 79 70 130 8 29 26 59 55 87 23 24 37 43 31 43-21 0-221-48-269-65-27-9-51-14-54-11-3 2 10 26 27 51 38 56 37 58-66 75-136 23-204 4-362-102-74-50-215-172-247-214l-27-35 22-45c11-26 43-68 70-95s44-51 39-55c-20-12-94 58-125 119-29 56-34 54-84-23l-32-49 30-43c17-24 43-55 59-71l29-27 80 35c88 37 162 80 239 136 37 27 67 39 116 48 82 14 173 14 236 1 85-19 85-18-12-129-104-119-72-110-410-114l-239-2-23-40c-28-49-84-217-117-350-27-109-96-438-96-459 0-7 42-29 93-49 183-71 408-157 413-157 2 0 77 109 165 243 89 133 163 244 166 247 11 9-7-375-22-485-8-60-11-112-7-116 6-6 64-37 375-198 65-33 125-61 132-61s27 11 43 25c38 32 80 40 127 25 32-10 39-10 57 7 29 26 147 194 203 288 140 238 302 646 391 985 14 52 27 103 30 113 5 17-6 18-171 17-97-1-179 1-182 4-12 11 19 93 40 106 52 32 280 223 375 314 113 109 123 133 64 148-27 7-32 13-27 28 7 23-9 31-111 55-68 16-219 17-524 6zm-860-762c0-16 69-121 104-158 17-18 52-51 79-72l47-38-26-18c-15-10-40-32-57-50l-30-32-26 20c-104 80-216 232-194 262 72 95 103 121 103 86zm884-229c-23-43-97-110-121-110-3 0-50-27-105-60-55-34-102-60-103-58-7 8 29 78 39 78 7 0 32 13 57 29 24 16 56 33 71 36 16 4 38 18 50 32 31 33 131 113 136 108 2-2-9-27-24-55zm-545-551c19-27 47-61 62-74 32-26 36-35 16-35-22 0-127 126-127 152 0 19 18 4 49-43zM3518 7138c12-6 22-17 22-25 0-17 15-17 30 2 10 12 8 16-15 25-37 14-68 12-37-2zM1263 7114c8-9 126-10 120-1-2 4-32 7-65 7-34 0-59-3-55-6zM1175 7080c11-5 40-8 65-8h45l-40 9c-22 4-51 8-65 8-23 0-23-1-5-9zM4620 7030c8-5 31-10 50-10s42 5 50 10c11 7-4 10-50 10s-61-3-50-10zM4466 6973c21-15 73-17 94-3 11 7 6 10-20 11-19 0-48 2-63 3-25 2-27 0-11-11zM4780 6890c20-13 87-13 95 0 4 6-16 10-52 10-41 0-54-3-43-10zM4600 6870c0-5 20-10 44-10 25 0 48 5 51 10 4 6-13 10-44 10-28 0-51-4-51-10zM5000 6830c8-5 29-10 45-10 17 0 37 5 45 10 11 7-3 10-45 10s-56-3-45-10zM4910 6790c8-5 26-10 40-10s32 5 40 10c11 7-1 10-40 10s-51-3-40-10z"/>
    <path d="M10978 5826c-37-11-69-24-73-27-3-3 18-9 46-12 28-4 110-26 182-51l131-44-81 79c-91 90-95 91-205 55zM12915 5840c-3-5-1-10 4-10 6 0 11 5 11 10 0 6-2 10-4 10-3 0-8-4-11-10zM7986 5768c-39-37-226-251-223-255 11-10 92 24 164 70 48 30 112 67 141 82 51 26 57 27 135 19 45-5 134-9 197-9h115l365-189c201-104 407-210 458-237 50-27 92-47 92-44 0 7-132 110-221 172-301 211-617 355-869 396-52 9-146 19-207 22l-113 5-34-32zM6127 5709c-219-45-377-86-503-130-161-57-205-89-120-89 25 0 47-4 50-9 4-5-24-26-60-46-105-59-386-251-565-385-232-175-223-169-441-343-109-86-203-157-211-157-7 0-72 29-145 65-72 36-140 65-151 65s-37 11-57 25c-49 33-69 32-118-8-23-19-50-38-60-44-16-9-90 24-426 192-275 138-423 206-455 210l-47 8 7-44c23-139 113-371 200-517 182-305 451-549 765-695 525-244 1134-212 1629 85 357 213 625 547 756 942 55 165 75 282 82 471l6 170-54 20c-41 15-77 20-151 19l-97-1 37 26c85 60 130 86 240 135 113 50 148 77 100 75-12 0-108-18-211-40zM12890 5391c0-11 5-23 10-26 6-3 10-10 10-16 0-5-4-9-10-9-5 0-10 7-10 15s-4 15-9 15c-14 0-19-86-15-259 2-90 5-165 7-166 1-1 14-5 29-9 24-5 28-3 33 21 3 16 15 61 26 101 18 63 20 89 14 190-7 136-16 162-57 162-21 0-28-5-28-19zM12870 4910c0-5 14-10 31-10s28 4 24 10c-3 6-17 10-31 10-13 0-24-4-24-10zM11103 4613c4-3 10-3 14 0 3 4 0 7-7 7s-10-3-7-7zM440 4530c0-5 5-10 10-10 6 0 10 5 10 10 0 6-4 10-10 10-5 0-10-4-10-10zM12520 4491c0-5 5-13 10-16 6-3 10-2 10 4 0 5-4 13-10 16-5 3-10 2-10-4zM9623 4333c4-3 10-3 14 0 3 4 0 7-7 7s-10-3-7-7zM13930 4200c0-5 5-10 10-10 6 0 10 5 10 10 0 6-4 10-10 10-5 0-10-4-10-10zM13273 4133c4-3 10-3 14 0 3 4 0 7-7 7s-10-3-7-7zM12368 4098c-7-44 6-93 25-93 9 0 17 3 17 8v57c0 42-3 50-19 50-12 0-20-9-23-22zM12390 3868c0-13 5-30 10-38 7-11 10-7 10 17 0 17-4 35-10 38s-10-4-10-17zM9223 3843c4-3 10-3 14 0 3 4 0 7-7 7s-10-3-7-7zM2213 3813c4-3 10-3 14 0 3 4 0 7-7 7s-10-3-7-7zM12401 3784c0-11 3-14 6-6 3 7 2 16-1 19-3 4-6-2-5-13zM12402 3712c1-24 6-46 10-48 12-7 10 58-2 76-8 11-10 3-8-28zM12415 3554c2-50-1-110-6-134-7-29-5-83 7-182 8-77 13-156 9-174-3-19-2-34 3-34 18 0 22 64 10 183-7 67-11 169-10 227s-2 128-7 155c-9 44-10 40-6-41zM173 3463c4-3 10-3 14 0 3 4 0 7-7 7s-10-3-7-7zM11440 3360c0-7 3-10 7-7 3 4 3 10 0 14-4 3-7 0-7-7zM15230 3360c0-7 3-10 7-7 3 4 3 10 0 14-4 3-7 0-7-7zM12415 2993c-12-29-15-212-4-219 6-3 6-10 1-17s-12-34-16-62c-3-27-10-79-15-115-8-52-7-68 5-80s14-11 14 14c0 15 5 37 11 48 7 12 13 59 15 105s6 88 10 94c3 5 0 16-6 24-8 10-10 28-5 52 10 50 12 173 4 173-4 0-10-8-14-17zM12650 2890c0-7 3-10 7-7 3 4 3 10 0 14-4 3-7 0-7-7zM3320 2500c0-7 3-10 7-7 3 4 3 10 0 14-4 3-7 0-7-7zM12301 2365l-1-60-21 25-21 25 6-27c7-33-8-37-26-8-20 31-30 23-13-10 22-43 19-45-31-15-25 15-48 25-50 22-2-2 15-26 38-52 29-32 36-46 23-41-11 5-29 11-40 14-18 5-19 4-5-13s12-17-28-10c-52 8-53 1-4-24 36-20 36-21 13-27l-23-7 28-12 29-12-25-8c-13-4-30-14-38-21-7-8-20-14-28-14s-14-4-14-10c0-5 19-10 43-10h42l-30-21c-28-20-29-21-5-15 83 19 78 20 45-8s-31-31 11-16c24 9 25 9 14-5-9-11-9-15-1-15 7 0 1-15-12-32-42-57-41-64 2-23l42 40-15-37c-23-53-20-57 14-18l30 35-6-30-6-30 22 25 21 25-5-45-6-45 24 48 24 48 5-33c3-18 10-49 15-68l9-35 8 49c7 45 9 48 21 31 13-17 14-17 15 11 1 29 1 29 20-11l18-40 1 43c0 23 4 42 8 42s21-22 37-50c31-53 56-70 30-20-23 44-18 56 11 29l26-24-26 53c-14 28-24 52-20 52 3 0 26-14 50-31 25-17 47-29 49-27s-15 26-38 53-34 46-24 42c9-4 24-10 34-14 11-4 14-3 9 5s2 10 26 6l33-6-40 36-40 35 44 1h44l-36 24c-19 13-43 26-54 29-22 5-15 8 72 34l60 18-70 5c-52 4-64 7-47 13 27 10 29 27 2 20-30-8-24 2 22 36s40 39-16 16c-42-18-46-8-11 25 32 30 25 38-12 13-52-36-56-38-44-14 13 23 2 28-17 9-16-16-15-6 4 42 20 50 13 63-12 20-10-16-24-28-30-26s-17-1-24-7c-10-10-11-3-7 31 7 57-5 53-27-8-18-49-36-58-36-18 0 17-2 18-15 8-12-10-15-10-15 1-1 8-7 28-15 44-13 30-13 29-14-30zm84-161c0-10-8-20-18-22-22-4-35 27-16 39 20 12 34 5 34-17zm-1-90c3-26 6-62 6-80 0-30-3-34-26-34-26 0-27 1-20 53 3 28 6 64 6 80 0 47 27 32 34-19zM13263 2263c4-3 10-3 14 0 3 4 0 7-7 7s-10-3-7-7zM3605 1500c3-5 8-10 11-10 2 0 4 5 4 10 0 6-5 10-11 10-5 0-7-4-4-10zM2993 1433c4-3 10-3 14 0 3 4 0 7-7 7s-10-3-7-7zM5563 1103c4-3 10-3 14 0 3 4 0 7-7 7s-10-3-7-7z"/>
  </g>
  <g fill="#2c4061">
    <path d="M2759 7211l-166-6-89-74c-155-130-446-425-608-618l-27-32 27-53c38-74 104-157 164-202l52-39-51-47c-28-26-51-50-51-54 0-11 68 21 195 91 66 37 136 75 155 86s44 26 55 33c33 24 43 16 55-42 11-50 8-117-6-167-5-15-2-16 21-7 14 5 42 21 63 35 20 14 45 25 55 25 9 0 46 26 81 59 34 32 75 67 91 77 33 21 85 128 135 274 17 52 38 98 45 103 39 22 294 236 383 321 75 73 102 105 100 120-2 13-11 21-23 21-30 1-46 15-40 35 5 14-3 21-37 34-97 36-187 40-579 27zM1807 7180c-86-15-281-147-411-278l-68-70 28-52c16-29 50-71 76-95 26-23 44-45 41-49-26-25-99 32-141 112l-29 53-38-55c-46-67-44-84 25-154l50-51 77 34c97 45 175 89 238 136 59 44 122 59 238 59 76 0 119-6 173-24 18-5 21-2 21 26 0 26 10 41 62 87 55 50 64 63 82 126 15 48 31 79 55 103l34 34-52-7c-29-4-103-22-165-39-61-18-109-28-106-22l36 54c16 24 26 46 23 49-6 6-163 33-186 32-8-1-37-5-63-9zM2957 6239c-133-37-233-83-397-182-175-106-243-160-327-259l-52-61 17-30c9-16 39-54 66-84 27-29 46-57 42-60-14-14-62 27-103 86l-42 61-26-39c-30-45-26-59 30-122 54-60 56-61 111-41 149 52 380 217 516 368 73 81 251 366 236 379-2 1-34-6-71-16zM12490 5880c-11-7-16-34-18-112-5-209 1-425 16-613 7-76 10-148 7-160-19-71-42-134-57-156-28-42-55-111-62-159-4-25-19-85-33-133-22-79-24-96-16-168 6-52 6-98-1-131-10-47-9-51 14-69 30-22 44-24 37-4-9 22 14 31 29 11 28-39 44 11 23 71-11 32 10 213 31 268 9 24 7 27-20 37-44 15-37 27 13 22l42-4-39 13c-22 6-41 18-44 26-3 10 0 12 14 7 50-19 72-18 79 3 3 12 11 21 16 21 11 0 11-3-1-34-8-23-6-28 20-41 35-18 70-81 70-126v-32l52 6c83 10 136 61 145 139 9 76-41 138-112 138-14 0-25 4-25 9 0 11 60 21 128 21h53l29 63c35 73 37 87 10 87-13 0-22-9-26-25-13-50-19-11-24 143l-5 157-120 5-120 5 84 42c46 24 99 45 117 49 30 5 33 10 38 52 8 61 26 323 26 385v47h-40c-22 0-40 5-40 10 0 6 18 10 41 10 24 0 38 4 34 10-3 6-22 10-41 10s-34 5-34 10c0 6 16 10 35 10 28 0 35 4 35 19 0 17-4 19-32 10-42-12-51-11-43 1 3 6 2 10-2 10-19 0-33-26-33-61 0-39-41-177-65-221-8-14-15-39-15-55 0-15-5-35-10-43-7-10-10 9-10 64 0 44-5 108-11 143-9 54-15 64-35 69-13 3-36 3-50 0-19-5-25-3-22 6 3 7 23 14 46 16s42 7 42 13c0 9-28 13-64 9-11-1-17 3-14 12 3 7 19 14 36 16 21 2 32 9 32 19 0 12-7 14-35 10-21-4-35-2-35 5 0 6-9 8-20 5-22-6-26 3-8 21 15 15 7 24-12 12zM5981 5509c-31-8-134-71-335-206-260-175-645-408-906-548-52-28-126-69-165-92-82-49-204-99-262-109-37-6-56 1-183 61-139 67-142 68-202 61-34-3-74-13-91-21-66-33-83-27-515 189-279 140-424 207-456 211l-48 8 7-44c23-139 113-371 200-517 182-305 451-549 765-695 525-244 1134-212 1629 85 357 213 625 547 756 942 55 165 75 282 82 471l6 170-49 18c-60 22-173 30-233 16z"/>
    <path d="M12893 5390c3-8 8-23 12-34 7-15 5-17-13-11-25 7-24 17-26-158-1-65 2-121 7-124 4-2 5-31 1-64l-7-59h31c25 0 31 5 35 28 3 15 14 57 25 93 17 56 19 85 15 193-6 135-12 149-59 151-18 0-24-4-21-15zM12870 4910c0-5 12-10 26-10s23 4 19 10c-3 6-15 10-26 10-10 0-19-4-19-10zM11103 4613c4-3 10-3 14 0 3 4 0 7-7 7s-10-3-7-7zM12370 4040c0-23 4-30 20-30 12 0 20 7 20 18 0 9-9 23-20 30-18 11-20 10-20-18zM12401 3784c0-11 3-14 6-6 3 7 2 16-1 19-3 4-6-2-5-13zM12413 3600c0-25 2-35 4-22 2 12 2 32 0 45-2 12-4 2-4-23zM12416 3440c-5-59-3-145 4-214 7-63 10-133 8-156-2-22 1-40 6-40s6 58 1 148c-4 81-7 195-6 255 2 59 1 107-2 107-2 0-8-45-11-100zM173 3463c4-3 10-3 14 0 3 4 0 7-7 7s-10-3-7-7zM12412 2951c-8-37-9-58-2-65 16-16 21-1 18 60l-3 59-13-54zM12650 2890c0-7 3-10 7-7 3 4 3 10 0 14-4 3-7 0-7-7zM12421 2854c0-11 3-14 6-6 3 7 2 16-1 19-3 4-6-2-5-13zM12301 2365l-1-60-21 25-21 25 6-27c7-33-8-37-26-8-20 31-30 23-13-10 22-43 19-45-31-15-25 15-48 25-50 22-2-2 15-26 38-52 29-32 36-46 23-41-11 5-29 11-40 14-18 5-19 4-5-13s12-17-28-10c-52 8-53 1-4-24 36-20 36-21 13-27l-23-7 28-12 29-12-25-8c-13-4-30-14-38-21-7-8-20-14-28-14s-14-4-14-10c0-5 19-10 43-10h42l-30-21c-28-20-29-21-5-15 83 19 78 20 45-8s-31-31 11-16c24 9 25 9 14-5-9-11-9-15-1-15 7 0 1-15-12-32-42-57-41-64 2-23l42 40-15-37c-23-53-20-57 14-18l30 35-6-30-6-30 22 25 21 25-5-45-6-45 24 48 24 48 5-33c3-18 10-49 15-68l9-35 8 49c7 45 9 48 21 31 13-17 14-17 15 11 1 29 1 29 20-11l18-40 1 43c0 23 4 42 8 42s21-22 37-50c31-53 56-70 30-20-23 44-18 56 11 29l26-24-26 53c-14 28-24 52-20 52 3 0 26-14 50-31 25-17 47-29 49-27s-15 26-38 53-34 46-24 42c9-4 24-10 34-14 11-4 14-3 9 5s2 10 26 6l33-6-40 36-40 35 44 1h44l-36 24c-19 13-43 26-54 29-22 5-15 8 72 34l60 18-70 5c-52 4-64 7-47 13 27 10 29 27 2 20-30-8-24 2 22 36s40 39-16 16c-42-18-46-8-11 25 32 30 25 38-12 13-52-36-56-38-44-14 13 23 2 28-17 9-16-16-15-6 4 42 20 50 13 63-12 20-10-16-24-28-30-26s-17-1-24-7c-10-10-11-3-7 31 7 57-5 53-27-8-18-49-36-58-36-18 0 17-2 18-15 8-12-10-15-10-15 1-1 8-7 28-15 44-13 30-13 29-14-30zm84-161c0-10-8-20-18-22-22-4-35 27-16 39 20 12 34 5 34-17zm-1-90c3-26 6-62 6-80 0-30-3-34-26-34-26 0-27 1-20 53 3 28 6 64 6 80 0 47 27 32 34-19zM2993 1433c4-3 10-3 14 0 3 4 0 7-7 7s-10-3-7-7z"/>
  </g>
  <g fill="#394a66">
    <path d="M2759 7210l-166-5-89-74c-100-83-442-424-518-516-28-33-65-76-84-96l-34-36 28-54c38-77 104-158 165-203l53-39-40-36c-22-20-46-44-54-54-14-18-13-18 25-3 22 9 94 47 160 83 66 37 136 75 155 86s44 26 55 33c30 22 41 17 55-25 13-39 10-149-5-184-6-15-4-16 17-8 13 5 46 23 73 40s57 31 66 31c10 0 26 12 37 28 11 15 47 47 80 71 51 37 66 55 97 120 43 87 85 202 85 230 0 23 9 31 180 168 184 148 342 300 338 327-2 13-11 21-23 21-30 1-46 15-40 35 13 39-153 73-335 68-63-2-190-5-281-8zM1809 7180c-54-9-69-17-164-78-83-54-201-151-268-220l-49-49 22-43c12-24 46-67 75-96s50-55 47-58c-25-25-105 38-142 111l-25 50-32-41c-48-60-50-77-13-127 17-24 44-54 59-66l28-22 124 62c68 34 149 81 179 104 82 62 213 83 343 57 88-18 84-19 92 16 4 19 27 47 66 80 45 40 61 61 69 93 18 68 32 99 64 135l30 34-44-7c-41-6-164-38-248-64-36-11-36-12 11 57 16 24 26 46 23 49-6 6-163 33-186 32-8-1-36-5-61-9zM3000 6249c-212-63-252-80-425-184-176-106-265-175-340-264l-54-64 17-30c9-16 38-53 65-82 51-57 55-65 32-65-20 0-92 75-114 119l-18 35-27-42-27-43 30-42c70-97 76-101 137-79 149 52 380 217 516 368 73 80 252 367 236 378-2 2-14-1-28-5zM12486 5877c-16-12-17-21-9-78 6-46 5-78-5-114-10-38-10-65-2-113 6-35 8-100 4-150-4-52-2-109 5-142 6-30 12-109 13-175 3-126-13-205-54-266-28-42-55-111-62-159-4-25-19-85-33-133-22-79-24-96-16-168 6-52 6-98-1-131-10-47-9-51 14-69 32-24 40-24 37 2-3 29 23 37 30 10 9-36 28-17 25 25-8 114-1 199 30 323 2 8-7 17-21 20-44 12-36 30 11 25l43-4-39 13c-22 6-41 18-44 26-3 10 0 12 14 7 11-4 31-10 46-13 23-4 28-1 34 22 4 16 10 23 16 17 5-5 5-19-1-35-9-24-7-28 19-42 35-18 70-81 70-126v-32l52 6c81 10 135 60 145 135 3 23 0 54-6 69-16 40-69 73-116 73-27 0-36 3-28 11 5 5 52 13 103 16l93 6 29 63c16 35 27 68 23 74-12 19-33 10-43-17l-9-28-7 35c-4 19-8 94-9 165l-2 130-120 5-120 5 84 42c46 24 99 45 117 49 30 6 33 9 39 56 4 27 9 89 11 136 2 48 6 133 10 190l7 102h-42c-30 0-41 4-38 13 2 7 19 11 43 10 30-2 35-1 19 6-11 5-30 10-42 10-38 1-26 21 12 21 28 0 35 4 35 19 0 17-4 19-32 10-42-12-51-11-43 1 3 6 2 10-2 10-19 0-33-26-33-61 0-39-41-177-65-221-8-14-15-39-15-55 0-15-4-34-9-41-13-21-22 28-15 81 4 24 1 76-6 115-11 66-13 71-41 77-16 4-38 3-50 0-15-5-20-3-17 6 3 8 22 15 46 17 23 2 42 7 42 13 0 9-28 13-64 9-11-1-17 3-14 12 3 7 19 14 36 16 21 2 32 9 32 19 0 12-7 14-35 9-24-5-35-3-35 5 0 6-8 9-20 6-22-6-26 3-8 21 17 17 5 24-16 9zM5981 5509c-31-8-134-71-335-206-260-175-645-408-906-548-52-28-126-69-165-92-82-49-204-99-262-109-37-6-56 1-183 61-139 67-142 68-202 61-34-3-74-13-91-21-66-33-83-27-515 189-279 140-424 207-456 211l-48 8 7-44c23-139 113-371 200-517 182-305 451-549 765-695 525-244 1134-212 1629 85 357 213 625 547 756 942 55 165 75 282 82 471l6 170-49 18c-60 22-173 30-233 16z"/>
    <path d="M12893 5390c3-8 8-23 12-34 7-15 5-17-13-11-25 7-24 16-26-160-1-60 2-115 7-122 4-6 6-37 3-67l-5-56h29c20 0 30 5 30 15 0 9 10 44 22 78 18 53 21 81 19 202-2 152-7 167-56 170-19 0-25-3-22-15zM12870 4910c0-5 12-10 26-10s23 4 19 10c-3 6-15 10-26 10-10 0-19-4-19-10zM11103 4613c4-3 10-3 14 0 3 4 0 7-7 7s-10-3-7-7zM12370 4040c0-23 4-30 20-30 12 0 20 7 20 18 0 9-9 23-20 30-18 11-20 10-20-18zM12412 3615c0-16 2-22 5-12 2 9 2 23 0 30-3 6-5-1-5-18zM12416 3440c-5-59-3-145 4-214 7-63 10-133 8-156-2-22 1-40 6-40 6 0 6 57 1 148-5 81-8 195-6 255 1 59 1 107-2 107-2 0-8-45-11-100zM173 3463c4-3 10-3 14 0 3 4 0 7-7 7s-10-3-7-7zM12650 2890c0-7 3-10 7-7 3 4 3 10 0 14-4 3-7 0-7-7zM12301 2365l-1-60-21 25-21 25 6-27c7-33-8-37-26-8-20 31-30 23-13-10 22-43 19-45-31-15-25 15-48 25-50 22-2-2 15-26 38-52 29-32 36-46 23-41-11 5-29 11-40 14-18 5-19 4-5-13s12-17-28-10c-52 8-53 1-4-24 36-20 36-21 13-27l-23-7 28-12 29-12-25-8c-13-4-30-14-38-21-7-8-20-14-28-14s-14-4-14-10c0-5 19-10 43-10h42l-30-21c-28-20-29-21-5-15 83 19 78 20 45-8s-31-31 11-16c24 9 25 9 14-5-9-11-9-15-1-15 7 0 1-15-12-32-42-57-41-64 2-23l42 40-15-37c-23-53-20-57 14-18l30 35-6-30-6-30 22 25 21 25-5-45-6-45 24 48 24 48 5-33c3-18 10-49 15-68l9-35 8 49c7 45 9 48 21 31 13-17 14-17 15 11 1 29 1 29 20-11l18-40 1 43c0 23 4 42 8 42s21-22 37-50c31-53 56-70 30-20-23 44-18 56 11 29l26-24-26 53c-14 28-24 52-20 52 3 0 26-14 50-31 25-17 47-29 49-27s-15 26-38 53-34 46-24 42c9-4 24-10 34-14 11-4 14-3 9 5s2 10 26 6l33-6-40 36-40 35 44 1h44l-36 24c-19 13-43 26-54 29-22 5-15 8 72 34l60 18-70 5c-52 4-64 7-47 13 27 10 29 27 2 20-30-8-24 2 22 36s40 39-16 16c-42-18-46-8-11 25 32 30 25 38-12 13-52-36-56-38-44-14 13 23 2 28-17 9-16-16-15-6 4 42 20 50 13 63-12 20-10-16-24-28-30-26s-17-1-24-7c-10-10-11-3-7 31 7 57-5 53-27-8-18-49-36-58-36-18 0 17-2 18-15 8-12-10-15-10-15 1-1 8-7 28-15 44-13 30-13 29-14-30zm84-161c0-10-8-20-18-22-22-4-35 27-16 39 20 12 34 5 34-17zm-1-90c3-26 6-62 6-80 0-30-3-34-26-34-26 0-27 1-20 53 3 28 6 64 6 80 0 47 27 32 34-19zM2993 1433c4-3 10-3 14 0 3 4 0 7-7 7s-10-3-7-7z"/>
  </g>
  <g fill="#d4474c">
    <path d="M1985 7135c-17-16-25-35-25-59 0-38-26-66-100-107-22-12-42-31-45-40-9-27-63-69-89-69-32 0-73-34-97-82-11-22-34-47-51-56-38-21-89-72-82-84 21-34 177 74 334 231 104 104 230 261 230 285 0 16-54 3-75-19zM3375 7102c-16-10-52-44-78-75-43-51-55-59-120-78-67-20-79-28-167-114-79-77-112-101-197-145-96-48-105-56-138-110-31-51-41-60-73-66-51-9-81-26-122-69-57-60-190-157-241-175-47-17-119-66-119-80 0-4 12-12 26-19 24-11 38-5 162 65 401 225 775 493 1030 738 75 73 102 105 100 120-4 28-26 30-63 8zM1403 6609c-30-9-68-47-58-57 8-9 135 50 129 59-6 11-28 10-71-2zM2986 6210c-20-22-36-46-36-54s-27-38-60-68c-45-40-65-66-79-106-24-65-34-78-80-102-41-21-75-55-120-122-33-50-90-89-153-106-44-12-130-71-125-86 8-23 39-16 104 22 179 105 352 267 465 436 54 82 134 226 124 226-2 0-20-18-40-40zM12487 5879c-17-10-22-44-11-72 3-9 14-12 30-9 18 3 24 11 24 29 0 20-4 24-20 20-22-6-26 3-8 21 16 16 7 23-15 11zM12752 5828c-17-17-15-28 7-28 14 0 19 6 18 20-1 23-8 25-25 8zM12493 5773c-7-2-13-9-13-15 0-14 43-6 48 10 4 12-12 15-35 5zM12740 5770c0-5 9-10 20-10s20 5 20 10c0 6-9 10-20 10s-20-4-20-10zM12737 5733c-2-5-14-42-27-83s-29-84-36-95-16-56-20-99l-7-79 39 6c21 4 49 7 62 7 27 0 29 25 3 39s-31 65-10 97c12 18 15 34 9 48-5 15 0 34 18 67 29 52 25 99-8 99-10 0-21-3-23-7zM12487 5716c-21-21-28-86-17-147 6-31 8-93 4-144-4-54-2-112 5-145 6-30 12-111 13-180 3-133-10-191-59-270-25-41-42-82-53-127-6-24-4-36 9-48 19-16 31-11 31 14 0 9 23 66 51 126l51 110 9 158c7 107 7 169 0 190-6 19-9 97-6 187 4 164-2 290-16 290-4 0-14-6-22-14zM2242 5533c-39-14-42-17-29-30s20-12 63 6c38 17 45 24 34 31-18 12-15 12-68-7zM5981 5509c-31-8-134-71-335-206-260-175-645-408-906-548-52-28-126-69-165-92-82-49-204-99-262-109-37-6-56 1-183 61-139 67-142 68-202 61-34-3-74-13-91-21-66-33-83-27-515 189-279 140-424 207-456 211l-48 8 7-44c23-139 113-371 200-517 182-305 451-549 765-695 525-244 1134-212 1629 85 357 213 625 547 756 942 55 165 75 282 82 471l6 170-49 18c-60 22-173 30-233 16zM12902 5365c6-14 13-23 16-21 7 7-9 46-18 46-5 0-4-11 2-25zM12869 5328c-5-90-3-258 3-258 22 0 28 73 20 248-2 36-21 44-23 10zM12596 4805c-18-13-8-15 95-15 80 1 121 5 139 15 23 13 14 14-95 14-90 0-125-3-139-14zM12575 4671c-23-10-49-38-58-63-5-13 2-22 23-33 35-18 70-81 70-125 0-26 4-30 28-30 43 0 93 18 119 42 30 28 29 34-4 33-24 0-28 4-25 24 3 31-14 51-45 51-35 0-59 16-77 50-14 29-14 31 7 39 12 4 29 11 37 14s-1 5-20 6c-19 0-44-4-55-8zM12380 4620c6-11 15-20 20-20 17 0 11 15-11 28-19 12-19 11-9-8zM12340 4534c-19-65-21-85-13-155 6-52 6-98-1-131-9-45-8-52 9-64 28-21 37-17 21 9s-10 94 9 99c10 2 10 12 0 52s-10 55 1 81c7 18 10 42 7 54-4 15 1 28 16 42 27 26 26 50-3 71l-23 17-23-75zM12370 4040c0-23 4-30 20-30 12 0 20 7 20 18 0 9-9 23-20 30-18 11-20 10-20-18zM12301 2365l-1-60-21 25-21 25 6-27c7-33-8-37-26-8-20 31-30 23-13-10 22-43 19-45-31-15-25 15-48 25-50 22-2-2 15-26 38-52 29-32 36-46 23-41-11 5-29 11-40 14-18 5-19 4-5-13s12-17-28-10c-52 8-53 1-4-24 36-20 36-21 13-27l-23-7 28-12 29-12-25-8c-13-4-30-14-38-21-7-8-20-14-28-14s-14-4-14-10c0-5 19-10 43-10h42l-30-21c-28-20-29-21-5-15 83 19 78 20 45-8s-31-31 11-16c24 9 25 9 14-5-9-11-9-15-1-15 7 0 1-15-12-32-42-57-41-64 2-23l42 40-15-37c-23-53-20-57 14-18l30 35-6-30-6-30 22 25 21 25-5-45-6-45 24 48 24 48 5-33c3-18 10-49 15-68l9-35 8 49c7 45 9 48 21 31 13-17 14-17 15 11 1 29 1 29 20-11l18-40 1 43c0 23 4 42 8 42s21-22 37-50c31-53 56-70 30-20-23 44-18 56 11 29l26-24-26 53c-14 28-24 52-20 52 3 0 26-14 50-31 25-17 47-29 49-27s-15 26-38 53-34 46-24 42c9-4 24-10 34-14 11-4 14-3 9 5s2 10 26 6l33-6-40 36-40 35 44 1h44l-36 24c-19 13-43 26-54 29-22 5-15 8 72 34l60 18-70 5c-52 4-64 7-47 13 27 10 29 27 2 20-30-8-24 2 22 36s40 39-16 16c-42-18-46-8-11 25 32 30 25 38-12 13-52-36-56-38-44-14 13 23 2 28-17 9-16-16-15-6 4 42 20 50 13 63-12 20-10-16-24-28-30-26s-17-1-24-7c-10-10-11-3-7 31 7 57-5 53-27-8-18-49-36-58-36-18 0 17-2 18-15 8-12-10-15-10-15 1-1 8-7 28-15 44-13 30-13 29-14-30zm84-161c0-10-8-20-18-22-22-4-35 27-16 39 20 12 34 5 34-17zm-1-90c3-26 6-62 6-80 0-30-3-34-26-34-26 0-27 1-20 53 3 28 6 64 6 80 0 47 27 32 34-19z"/>
  </g>
  <g fill="#f27d2b">
    <path d="M1985 7135c-17-16-25-35-25-59 0-38-26-66-100-107-22-12-42-31-45-40-9-27-63-69-89-69-32 0-73-34-97-82-11-22-34-47-51-56-38-21-89-72-82-84 21-34 177 74 334 231 104 104 230 261 230 285 0 16-54 3-75-19zM3375 7102c-16-10-52-44-78-75-43-51-55-59-120-78-67-20-79-28-167-114-79-77-112-101-197-145-96-48-105-56-138-110-31-51-41-60-73-66-51-9-81-26-122-69-57-60-190-157-241-175-47-17-119-66-119-80 0-4 12-12 26-19 24-11 38-5 162 65 401 225 775 493 1030 738 75 73 102 105 100 120-4 28-26 30-63 8zM1403 6609c-30-9-68-47-58-57 8-9 135 50 129 59-6 11-28 10-71-2zM2986 6210c-20-22-36-46-36-54s-27-38-60-68c-45-40-65-66-79-106-24-65-34-78-80-102-41-21-75-55-120-122-33-50-90-89-153-106-44-12-130-71-125-86 8-23 39-16 104 22 179 105 352 267 465 436 54 82 134 226 124 226-2 0-20-18-40-40zM12487 5879c-17-10-22-44-11-72 3-9 14-12 30-9 18 3 24 11 24 29 0 20-4 24-20 20-22-6-26 3-8 21 16 16 7 23-15 11zM12752 5828c-17-17-15-28 7-28 14 0 19 6 18 20-1 23-8 25-25 8zM12493 5773c-7-2-13-9-13-15 0-14 43-6 48 10 4 12-12 15-35 5zM12740 5770c0-5 9-10 20-10s20 5 20 10c0 6-9 10-20 10s-20-4-20-10zM12737 5733c-2-5-14-42-27-83s-29-84-36-95-16-56-20-99l-7-79 39 6c21 4 49 7 62 7 27 0 29 25 3 39s-31 65-10 97c12 18 15 34 9 48-5 15 0 34 18 67 29 52 25 99-8 99-10 0-21-3-23-7zM12487 5716c-21-21-28-86-17-147 6-31 8-93 4-144-4-54-2-112 5-145 6-30 12-111 13-180 3-133-10-191-59-270-25-41-42-82-53-127-6-24-4-36 9-48 19-16 31-11 31 14 0 9 23 66 51 126l51 110 9 158c7 107 7 169 0 190-6 19-9 97-6 187 4 164-2 290-16 290-4 0-14-6-22-14zM2242 5533c-39-14-42-17-29-30s20-12 63 6c38 17 45 24 34 31-18 12-15 12-68-7zM5981 5509c-31-8-134-71-335-206-260-175-645-408-906-548-52-28-126-69-165-92-82-49-204-99-262-109-37-6-56 1-183 61-139 67-142 68-202 61-34-3-74-13-91-21-66-33-83-27-515 189-279 140-424 207-456 211l-48 8 7-44c23-139 113-371 200-517 182-305 451-549 765-695 525-244 1134-212 1629 85 357 213 625 547 756 942 55 165 75 282 82 471l6 170-49 18c-60 22-173 30-233 16zM12902 5365c6-14 13-23 16-21 7 7-9 46-18 46-5 0-4-11 2-25zM12869 5328c-5-90-3-258 3-258 22 0 28 73 20 248-2 36-21 44-23 10zM12596 4805c-18-13-8-15 95-15 80 1 121 5 139 15 23 13 14 14-95 14-90 0-125-3-139-14zM12575 4671c-23-10-49-38-58-63-5-13 2-22 23-33 35-18 70-81 70-125 0-26 4-30 28-30 43 0 93 18 119 42 30 28 29 34-4 33-24 0-28 4-25 24 3 31-14 51-45 51-35 0-59 16-77 50-14 29-14 31 7 39 12 4 29 11 37 14s-1 5-20 6c-19 0-44-4-55-8zM12380 4620c6-11 15-20 20-20 17 0 11 15-11 28-19 12-19 11-9-8zM12340 4534c-19-65-21-85-13-155 6-52 6-98-1-131-9-45-8-52 9-64 28-21 37-17 21 9s-10 94 9 99c10 2 10 12 0 52s-10 55 1 81c7 18 10 42 7 54-4 15 1 28 16 42 27 26 26 50-3 71l-23 17-23-75zM12370 4040c0-23 4-30 20-30 12 0 20 7 20 18 0 9-9 23-20 30-18 11-20 10-20-18zM12407 2380c-18-56-30-80-38-80-5 0-9 9-9 21 0 11-5 17-10 14-6-3-15 6-22 22l-12 28-3-30c-7-54-13-63-28-42-13 18-14 17-17-10l-3-28-20 33c-10 17-23 32-28 32s1-16 12-36c28-46 20-53-21-22-18 13-42 28-52 31-17 7-17 6-5-10 8-10 22-24 31-31 10-7 23-22 29-34 10-19 9-20-15-14-21 5-24 3-19-10s0-14-33-8c-27 4-36 3-29-4 6-5 19-12 29-14 32-5 31-28-1-29-24 0-25-2-8-8 11-5 26-6 33-4 6 3 12 0 12-5 0-6-10-14-22-18-13-4-27-13-33-20-5-7-19-14-30-17s0-5 24-6c35-1 42-4 37-17s-1-15 19-10c34 9 31-6-6-28-39-23-30-33 11-13 30 16 31 16 24-6-3-12-12-32-20-44-22-34-17-39 12-12 25 23 26 23 15 2-21-41-10-48 20-13l31 35-7-29-6-30 21 25 21 24-6-38c-4-27-3-37 4-32 6 3 11 15 11 25s5 22 10 25c6 4 10-5 10-19s4-26 8-26c5 0 9-14 10-31 1-40 12-51 13-13 0 27 17 80 18 60 1-5 8-3 16 4 12 10 17 6 29-22l14-33 1 38c1 20 6 37 11 37 6 0 10-3 10-7 1-5 12-21 26-38l25-30-11 29c-15 40-6 43 25 10l27-29-20 35c-11 19-23 45-27 58l-7 23 39-24c21-13 45-27 53-32s-2 11-22 35c-36 42-50 68-28 55 11-7 100-14 100-8 0 1-18 14-41 29-48 30-44 39 14 36 41-3 42-3 17 12-14 9-38 21-54 27-27 11-28 13-11 25 10 7 37 16 61 20 69 10 61 23-11 18-64-4-88 8-40 20 14 4 25 10 25 15 0 4-11 6-25 3-36-6-31 2 22 37 25 17 39 31 30 31s-18-4-21-9c-8-12-56-20-56-10 0 5 9 18 20 29 28 28 15 25-27-7-34-26-35-27-29-5 8 23-9 32-17 10-2-7-8-10-12-6s-3 13 2 20c6 7 13 27 17 43l7 30-17-25c-10-14-19-27-21-30-2-2-8 2-13 10-7 10-10 11-10 3 0-31-19-9-22 25s-4 35-11 12zm-18-163c13-16-4-37-31-37-21 0-25 35-5 43 20 9 24 8 36-6zm-2-107c1-30 4-67 7-82 5-26 3-28-24-28h-30l4 78c2 42 5 81 5 85 1 5 9 7 19 5 13-3 17-15 19-58z"/>
  </g>
  <g fill="#fc5051">
    <path d="M1985 7135c-17-16-25-35-25-59 0-38-26-66-100-107-22-12-42-31-45-40-9-27-63-69-89-69-32 0-73-34-97-82-11-22-34-47-51-56-38-21-89-72-82-84 21-34 177 74 334 231 104 104 230 261 230 285 0 16-54 3-75-19zM3375 7102c-16-10-52-44-78-75-43-51-55-59-120-78-67-20-79-28-167-114-79-77-112-101-197-145-96-48-105-56-138-110-31-51-41-60-73-66-51-9-81-26-122-69-57-60-190-157-241-175-47-17-119-66-119-80 0-4 12-12 26-19 24-11 38-5 162 65 401 225 775 493 1030 738 75 73 102 105 100 120-4 28-26 30-63 8zM1403 6609c-30-9-68-47-58-57 8-9 135 50 129 59-6 11-28 10-71-2zM2986 6210c-20-22-36-46-36-54s-27-38-60-68c-45-40-65-66-79-106-24-65-34-78-80-102-41-21-75-55-120-122-33-50-90-89-153-106-44-12-130-71-125-86 8-23 39-16 104 22 179 105 352 267 465 436 54 82 134 226 124 226-2 0-20-18-40-40zM12487 5879c-17-10-22-44-11-72 3-9 14-12 30-9 18 3 24 11 24 29 0 20-4 24-20 20-22-6-26 3-8 21 16 16 7 23-15 11zM12752 5828c-17-17-15-28 7-28 14 0 19 6 18 20-1 23-8 25-25 8zM12493 5773c-7-2-13-9-13-15 0-14 43-6 48 10 4 12-12 15-35 5zM12740 5770c0-5 9-10 20-10s20 5 20 10c0 6-9 10-20 10s-20-4-20-10zM12737 5733c-2-5-14-42-27-83s-29-84-36-95-16-56-20-99l-7-79 39 6c21 4 49 7 62 7 27 0 29 25 3 39s-31 65-10 97c12 18 15 34 9 48-5 15 0 34 18 67 29 52 25 99-8 99-10 0-21-3-23-7zM12487 5716c-21-21-28-86-17-147 6-31 8-93 4-144-4-54-2-112 5-145 6-30 12-111 13-180 3-133-10-191-59-270-25-41-42-82-53-127-6-24-4-36 9-48 19-16 31-11 31 14 0 9 23 66 51 126l51 110 9 158c7 107 7 169 0 190-6 19-9 97-6 187 4 164-2 290-16 290-4 0-14-6-22-14zM2242 5533c-39-14-42-17-29-30s20-12 63 6c38 17 45 24 34 31-18 12-15 12-68-7zM6016 5505c-11-8-37-15-57-15-48 0-57-15-28-46 28-29 42-30 78-3 15 11 43 22 62 25s39 11 44 17c13 16 53 9 86-14 30-21 59-25 59-8 0 5-4 8-8 5-5-3-25 6-46 20-47 32-160 44-190 19z"/>
    <path d="M6120 5454c-19-7-43-13-53-13-11-1-30-10-44-21s-38-20-53-20-35 9-45 20-31 20-47 20c-28 0-138-65-138-81 0-13 139-11 202 2 29 6 62 20 74 30 32 30 69 24 100-16 31-42 43-43 74-10 13 14 34 25 47 25 14 0 23 6 23 15 0 8-7 15-16 15s-28 8-42 18c-43 30-45 30-82 16z"/>
    <path d="M6050 5383c-8-4-23-14-34-25-13-12-35-18-63-18-43 0-57-12-27-24 27-11 70-6 90 9 27 20 67 18 97-5 14-11 34-20 45-20 10 0 27 9 37 20s29 20 42 20c14 0 23 6 23 15 0 21-26 19-47-4-45-47-71-45-122 9-15 16-32 26-41 23zM12902 5365c6-14 13-23 16-21 7 7-9 46-18 46-5 0-4-11 2-25z"/>
    <path d="M5709 5341c-1-3-1-10 0-14 1-5-4-5-10-2-6 4-84-42-172-103-150-102-566-348-787-467-52-28-126-69-165-92-82-49-204-99-262-109-37-6-56 1-183 61-139 67-142 68-202 61-34-3-74-13-91-21-66-33-83-27-515 189-279 140-424 207-456 211l-48 8 7-44c23-139 113-371 200-517 254-425 668-722 1146-822 619-128 1275 96 1676 573 140 168 293 429 276 473-4 11-3 15 5 11 12-8 56 98 47 113-3 5-17 7-31 4s-23-1-20 4 17 10 32 10c24 0 43 15 44 35 0 5-22 7-50 5-58-4-51 11 9 19 46 6 45 6 55 46 4 17 2 27-4 27s-9-4-6-9c8-13-44-21-68-10-12 5-33 19-48 31l-28 22-32-24-33-23 24 26c14 15 23 29 20 31-2 2-26 11-54 19-27 9-40 16-29 16 12 1 41-6 64-14 47-16 54-14 89 27 27 31 46 34 95 14 33-14 34-14 41 11 3 14 5 26 3 27s-25 7-51 14c-45 11-51 11-79-9-29-21-73-35-143-45l-30-4 28 9c16 5 34 14 40 19 7 5 26 12 42 16 17 4 38 14 47 23 9 8 32 19 50 24 27 7 25 7-12 3-77-11-109-8-129 10s-59 31-143 46c-50 9-93 28-84 37 3 3 12 0 20-6 9-7 50-17 93-22 43-6 96-19 118-30 30-16 49-19 80-14 22 4 54 6 70 5 96-7 90-10 93 47 3 49 2 52-19 48-12-2-29-11-38-18-29-25-48-26-97-2-45 22-51 23-73 8-23-15-48-14-142 2-23 4-39 3-43-4-4-6-13-11-19-11-7 1-1 10 12 21s22 21 20 23c-8 7-149 13-150 7zm226-221c8-13-5-13-25 0-13 8-13 10 2 10 9 0 20-4 23-10zm152-226c-3-3-12-4-19-1-8 3-5 6 6 6 11 1 17-2 13-5zM12869 5328c-5-90-3-258 3-258 22 0 28 73 20 248-2 36-21 44-23 10z"/>
    <path d="M6193 5183c4-3 10-3 14 0 3 4 0 7-7 7s-10-3-7-7zM6228 5173c7-3 16-2 19 1 4 3-2 6-13 5-11 0-14-3-6-6zM6109 5064l-24-26 28-24c34-29 48-30 72-4 10 11 24 20 32 20 7 0 13 9 13 19 0 24-16 36-23 19-3-8-6-6-6 5-2 28-62 23-92-9zM12596 4805c-18-13-8-15 95-15 80 1 121 5 139 15 23 13 14 14-95 14-90 0-125-3-139-14zM12575 4671c-23-10-49-38-58-63-5-13 2-22 23-33 35-18 70-81 70-125 0-26 4-30 28-30 43 0 93 18 119 42 30 28 29 34-4 33-24 0-28 4-25 24 3 31-14 51-45 51-35 0-59 16-77 50-14 29-14 31 7 39 12 4 29 11 37 14s-1 5-20 6c-19 0-44-4-55-8zM12380 4620c6-11 15-20 20-20 17 0 11 15-11 28-19 12-19 11-9-8zM12340 4534c-19-65-21-85-13-155 6-52 6-98-1-131-9-45-8-52 9-64 28-21 37-17 21 9s-10 94 9 99c10 2 10 12 0 52s-10 55 1 81c7 18 10 42 7 54-4 15 1 28 16 42 27 26 26 50-3 71l-23 17-23-75zM12370 4040c0-23 4-30 20-30 12 0 20 7 20 18 0 9-9 23-20 30-18 11-20 10-20-18zM12407 2380c-18-56-30-80-38-80-5 0-9 9-9 21 0 11-5 17-10 14-6-3-15 6-22 22l-12 28-3-30c-7-54-13-63-28-42-13 18-14 17-17-10l-3-28-20 33c-10 17-23 32-28 32s1-16 12-36c28-46 20-53-21-22-18 13-42 28-52 31-17 7-17 6-5-10 8-10 22-24 31-31 10-7 23-22 29-34 10-19 9-20-15-14-21 5-24 3-19-10s0-14-33-8c-27 4-36 3-29-4 6-5 19-12 29-14 32-5 31-28-1-29-24 0-25-2-8-8 11-5 26-6 33-4 6 3 12 0 12-5 0-6-10-14-22-18-13-4-27-13-33-20-5-7-19-14-30-17s0-5 24-6c35-1 42-4 37-17s-1-15 19-10c34 9 31-6-6-28-39-23-30-33 11-13 30 16 31 16 24-6-3-12-12-32-20-44-22-34-17-39 12-12 25 23 26 23 15 2-21-41-10-48 20-13l31 35-7-29-6-30 21 25 21 24-6-38c-4-27-3-37 4-32 6 3 11 15 11 25s5 22 10 25c6 4 10-5 10-19s4-26 8-26c5 0 9-14 10-31 1-40 12-51 13-13 0 27 17 80 18 60 1-5 8-3 16 4 12 10 17 6 29-22l14-33 1 38c1 20 6 37 11 37 6 0 10-3 10-7 1-5 12-21 26-38l25-30-11 29c-15 40-6 43 25 10l27-29-20 35c-11 19-23 45-27 58l-7 23 39-24c21-13 45-27 53-32s-2 11-22 35c-36 42-50 68-28 55 11-7 100-14 100-8 0 1-18 14-41 29-48 30-44 39 14 36 41-3 42-3 17 12-14 9-38 21-54 27-27 11-28 13-11 25 10 7 37 16 61 20 69 10 61 23-11 18-64-4-88 8-40 20 14 4 25 10 25 15 0 4-11 6-25 3-36-6-31 2 22 37 25 17 39 31 30 31s-18-4-21-9c-8-12-56-20-56-10 0 5 9 18 20 29 28 28 15 25-27-7-34-26-35-27-29-5 8 23-9 32-17 10-2-7-8-10-12-6s-3 13 2 20c6 7 13 27 17 43l7 30-17-25c-10-14-19-27-21-30-2-2-8 2-13 10-7 10-10 11-10 3 0-31-19-9-22 25s-4 35-11 12zm-18-163c13-16-4-37-31-37-21 0-25 35-5 43 20 9 24 8 36-6zm-2-107c1-30 4-67 7-82 5-26 3-28-24-28h-30l4 78c2 42 5 81 5 85 1 5 9 7 19 5 13-3 17-15 19-58z"/>
  </g>
  <g fill="#ef8c37">
    <path d="M1985 7135c-17-16-25-35-25-59 0-38-26-66-100-107-22-12-42-31-45-40-9-27-63-69-89-69-32 0-73-34-97-82-11-22-34-47-51-56-38-21-89-72-82-84 21-34 177 74 334 231 104 104 230 261 230 285 0 16-54 3-75-19zM3375 7102c-16-10-52-44-78-75-43-51-55-59-120-78-67-20-79-28-167-114-79-77-112-101-197-145-96-48-105-56-138-110-31-51-41-60-73-66-51-9-81-26-122-69-57-60-190-157-241-175-47-17-119-66-119-80 0-4 12-12 26-19 24-11 38-5 162 65 401 225 775 493 1030 738 75 73 102 105 100 120-4 28-26 30-63 8zM1403 6609c-30-9-68-47-58-57 8-9 135 50 129 59-6 11-28 10-71-2zM2986 6210c-20-22-36-46-36-54s-27-38-60-68c-45-40-65-66-79-106-24-65-34-78-80-102-41-21-75-55-120-122-33-50-90-89-153-106-44-12-130-71-125-86 8-23 39-16 104 22 179 105 352 267 465 436 54 82 134 226 124 226-2 0-20-18-40-40zM12487 5879c-17-10-22-44-11-72 3-9 14-12 30-9 18 3 24 11 24 29 0 20-4 24-20 20-22-6-26 3-8 21 16 16 7 23-15 11zM12752 5828c-17-17-15-28 7-28 14 0 19 6 18 20-1 23-8 25-25 8zM12493 5773c-7-2-13-9-13-15 0-14 43-6 48 10 4 12-12 15-35 5zM12740 5770c0-5 9-10 20-10s20 5 20 10c0 6-9 10-20 10s-20-4-20-10zM12737 5733c-2-5-14-42-27-83s-29-84-36-95-16-56-20-99l-7-79 39 6c21 4 49 7 62 7 27 0 29 25 3 39s-31 65-10 97c12 18 15 34 9 48-5 15 0 34 18 67 29 52 25 99-8 99-10 0-21-3-23-7zM12487 5716c-21-21-28-86-17-147 6-31 8-93 4-144-4-54-2-112 5-145 6-30 12-111 13-180 3-133-10-191-59-270-25-41-42-82-53-127-6-24-4-36 9-48 19-16 31-11 31 14 0 9 23 66 51 126l51 110 9 158c7 107 7 169 0 190-6 19-9 97-6 187 4 164-2 290-16 290-4 0-14-6-22-14zM2242 5533c-39-14-42-17-29-30s20-12 63 6c38 17 45 24 34 31-18 12-15 12-68-7zM6016 5505c-11-8-37-15-57-15-48 0-57-15-28-46 28-29 42-30 78-3 15 11 43 22 62 25s39 11 44 17c13 16 53 9 86-14 30-21 59-25 59-8 0 5-4 8-8 5-5-3-25 6-46 20-47 32-160 44-190 19z"/>
    <path d="M6120 5454c-19-7-43-13-53-13-11-1-30-10-44-21s-38-20-53-20-35 9-45 20-31 20-47 20c-28 0-138-65-138-81 0-13 139-11 202 2 29 6 62 20 74 30 32 30 69 24 100-16 31-42 43-43 74-10 13 14 34 25 47 25 14 0 23 6 23 15 0 8-7 15-16 15s-28 8-42 18c-43 30-45 30-82 16z"/>
    <path d="M6050 5383c-8-4-23-14-34-25-13-12-35-18-63-18-43 0-57-12-27-24 27-11 70-6 90 9 27 20 67 18 97-5 14-11 34-20 45-20 10 0 27 9 37 20s29 20 42 20c14 0 23 6 23 15 0 21-26 19-47-4-45-47-71-45-122 9-15 16-32 26-41 23zM12902 5365c6-14 13-23 16-21 7 7-9 46-18 46-5 0-4-11 2-25z"/>
    <path d="M5709 5341c-1-3-1-10 0-14 1-5-4-5-10-2-6 4-84-42-172-103-150-102-566-348-787-467-52-28-126-69-165-92-82-49-204-99-262-109-37-6-56 1-183 61-139 67-142 68-202 61-34-3-74-13-91-21-66-33-83-27-515 189-279 140-424 207-456 211l-48 8 7-44c23-139 113-371 200-517 254-425 668-722 1146-822 619-128 1275 96 1676 573 140 168 293 429 276 473-4 11-3 15 5 11 12-8 56 98 47 113-3 5-17 7-31 4s-23-1-20 4 17 10 32 10c24 0 43 15 44 35 0 5-22 7-50 5-58-4-51 11 9 19 46 6 45 6 55 46 4 17 2 27-4 27s-9-4-6-9c8-13-44-21-68-10-12 5-33 19-48 31l-28 22-32-24-33-23 24 26c14 15 23 29 20 31-2 2-26 11-54 19-27 9-40 16-29 16 12 1 41-6 64-14 47-16 54-14 89 27 27 31 46 34 95 14 33-14 34-14 41 11 3 14 5 26 3 27s-25 7-51 14c-45 11-51 11-79-9-29-21-73-35-143-45l-30-4 28 9c16 5 34 14 40 19 7 5 26 12 42 16 17 4 38 14 47 23 9 8 32 19 50 24 27 7 25 7-12 3-77-11-109-8-129 10s-59 31-143 46c-50 9-93 28-84 37 3 3 12 0 20-6 9-7 50-17 93-22 43-6 96-19 118-30 30-16 49-19 80-14 22 4 54 6 70 5 96-7 90-10 93 47 3 49 2 52-19 48-12-2-29-11-38-18-29-25-48-26-97-2-45 22-51 23-73 8-23-15-48-14-142 2-23 4-39 3-43-4-4-6-13-11-19-11-7 1-1 10 12 21s22 21 20 23c-8 7-149 13-150 7zm226-221c8-13-5-13-25 0-13 8-13 10 2 10 9 0 20-4 23-10zm152-226c-3-3-12-4-19-1-8 3-5 6 6 6 11 1 17-2 13-5zM12869 5328c-5-90-3-258 3-258 22 0 28 73 20 248-2 36-21 44-23 10z"/>
    <path d="M6193 5183c4-3 10-3 14 0 3 4 0 7-7 7s-10-3-7-7zM6228 5173c7-3 16-2 19 1 4 3-2 6-13 5-11 0-14-3-6-6zM6109 5064l-24-26 28-24c34-29 48-30 72-4 10 11 24 20 32 20 7 0 13 9 13 19 0 24-16 36-23 19-3-8-6-6-6 5-2 28-62 23-92-9zM12596 4805c-18-13-8-15 95-15 80 1 121 5 139 15 23 13 14 14-95 14-90 0-125-3-139-14zM12575 4671c-23-10-49-38-58-63-5-13 2-22 23-33 35-18 70-81 70-125 0-26 4-30 28-30 43 0 93 18 119 42 30 28 29 34-4 33-24 0-28 4-25 24 3 31-14 51-45 51-35 0-59 16-77 50-14 29-14 31 7 39 12 4 29 11 37 14s-1 5-20 6c-19 0-44-4-55-8zM12380 4620c6-11 15-20 20-20 17 0 11 15-11 28-19 12-19 11-9-8zM12340 4534c-19-65-21-85-13-155 6-52 6-98-1-131-9-45-8-52 9-64 28-21 37-17 21 9s-10 94 9 99c10 2 10 12 0 52s-10 55 1 81c7 18 10 42 7 54-4 15 1 28 16 42 27 26 26 50-3 71l-23 17-23-75zM12370 4040c0-23 4-30 20-30 12 0 20 7 20 18 0 9-9 23-20 30-18 11-20 10-20-18z"/>
  </g>
  <g fill="#f09b48">
    <path d="M1985 7135c-17-16-25-35-25-59 0-38-26-66-100-107-22-12-42-31-45-40-9-27-63-69-89-69-32 0-73-34-97-82-11-22-34-47-51-56-38-21-89-72-82-84 21-34 177 74 334 231 104 104 230 261 230 285 0 16-54 3-75-19zM3375 7102c-16-10-52-44-78-75-43-51-55-59-120-78-67-20-79-28-167-114-79-77-112-101-197-145-96-48-105-56-138-110-31-51-41-60-73-66-51-9-81-26-122-69-57-60-190-157-241-175-47-17-119-66-119-80 0-4 12-12 26-19 24-11 38-5 162 65 401 225 775 493 1030 738 75 73 102 105 100 120-4 28-26 30-63 8zM1403 6609c-30-9-68-47-58-57 8-9 135 50 129 59-6 11-28 10-71-2zM2986 6210c-20-22-36-46-36-54s-27-38-60-68c-45-40-65-66-79-106-24-65-34-78-80-102-41-21-75-55-120-122-33-50-90-89-153-106-44-12-130-71-125-86 8-23 39-16 104 22 179 105 352 267 465 436 54 82 134 226 124 226-2 0-20-18-40-40zM12487 5879c-17-10-22-44-11-72 3-9 14-12 30-9 18 3 24 11 24 29 0 20-4 24-20 20-22-6-26 3-8 21 16 16 7 23-15 11zM12752 5828c-17-17-15-28 7-28 14 0 19 6 18 20-1 23-8 25-25 8zM12493 5773c-7-2-13-9-13-15 0-14 43-6 48 10 4 12-12 15-35 5zM12740 5770c0-5 9-10 20-10s20 5 20 10c0 6-9 10-20 10s-20-4-20-10zM12737 5733c-2-5-14-42-27-83s-29-84-36-95-16-56-20-99l-7-79 39 6c21 4 49 7 62 7 27 0 29 25 3 39s-31 65-10 97c12 18 15 34 9 48-5 15 0 34 18 67 29 52 25 99-8 99-10 0-21-3-23-7zM12487 5716c-21-21-28-86-17-147 6-31 8-93 4-144-4-54-2-112 5-145 6-30 12-111 13-180 3-133-10-191-59-270-25-41-42-82-53-127-6-24-4-36 9-48 19-16 31-11 31 14 0 9 23 66 51 126l51 110 9 158c7 107 7 169 0 190-6 19-9 97-6 187 4 164-2 290-16 290-4 0-14-6-22-14zM2242 5533c-39-14-42-17-29-30s20-12 63 6c38 17 45 24 34 31-18 12-15 12-68-7zM12902 5365c6-14 13-23 16-21 7 7-9 46-18 46-5 0-4-11 2-25zM12869 5328c-5-90-3-258 3-258 22 0 28 73 20 248-2 36-21 44-23 10zM5660 5298c0-4-6-5-13-2-8 3-20-3-28-13-7-10-10-15-5-11 4 4 25-2 46-13 31-16 43-18 59-9 25 13 27 30 5 30-13 0-14 3-5 13 8 11 3 13-24 13-19-1-35-4-35-8zM5527 5222c-31-22-44-38-37-42 8-5 7-9-4-13-9-4-16-2-16 4s-5 7-10 4c-6-4-7-11-4-17 4-7 2-8-5-4-7 5-29-3-51-18-56-37-547-320-660-381-52-28-126-69-165-92-82-49-204-99-262-109-37-6-56 1-183 61-139 67-142 68-202 61-34-3-74-13-91-21-66-33-83-27-515 189-279 140-424 207-456 211l-48 8 7-44c23-139 113-371 200-517 254-425 668-722 1146-822 618-128 1275 96 1674 571 42 50 72 95 69 101-4 6-3 8 3 5 12-8 97 118 89 131-3 5-19 7-36 4-18-2-30 0-30 7 0 6 10 11 23 11s34 11 47 25 29 25 36 25c12 0 34 29 34 45 0 4-27 4-60 0-47-5-66-4-85 9-13 9-41 16-62 17-33 1-35 2-13 8 15 5 40 2 63-7 37-14 147-10 147 7 0 11-139 34-205 34-51 1-55 2-30 10 19 7 61 6 127-3 98-12 99-12 124 11 32 30 30 36-8 44-18 4-47 16-64 26-41 25-53 24-86-7-26-26-29-27-90-16l-63 11 57-5c54-4 60-2 89 26 37 35 66 38 111 10 40-24 61-26 32-2-11 10-19 22-17 28 2 7-17 13-51 16s-63 12-75 23c-17 15-30 16-88 10-40-4-76-14-87-23-18-16-18-16-5 6s28 28 77 34c31 4 30 19-3 43l-26 20-39-23c-23-13-41-18-45-12-3 6-1 10 6 10s21 8 31 17c25 22 73 21 101-4 14-13 42-22 80-26 31-3 57-3 57 0s-10 19-22 36c-50 71-44 68-157 66-58-1-118-5-135-10-23-7-27-6-18 4 7 6 68 19 135 27l122 15-57 28c-55 27-59 28-90 13-44-23-72-20-107 10-26 22-37 25-73 20-31-4-37-3-23 3 35 17 81 12 100-9 21-24 67-26 85-5 7 8 20 15 29 15 10 0 4 10-19 28-40 32-124 52-195 46l-50-4 40 11c57 15 174 3 207-21 15-11 37-20 50-19 22 1 22 1-2 9-14 4-19 8-11 9 9 1 2 11-17 24-17 13-30 26-27 28 2 3-11 3-30 1-20-2-45 2-58 10-46 31-79 28-130-10zm98-251c-3-6 4-15 16-21 11-7 18-14 15-17-7-7-46 26-46 39 0 4 5 8 11 8 5 0 8-4 4-9zm60-69c-3-3-11 0-18 7-9 10-8 11 6 5 10-3 15-9 12-12zm22-98c-3-3-12-4-19-1-8 3-5 6 6 6 11 1 17-2 13-5z"/>
    <path d="M5800 5116c0-2 9-6 20-9s18-1 14 4c-5 9-34 13-34 5zM5868 5093c7-3 16-2 19 1 4 3-2 6-13 5-11 0-14-3-6-6zM5945 4860c3-5 23-10 43-10 28 0 33 3 22 10-20 13-73 13-65 0zM12596 4805c-18-13-8-15 95-15 80 1 121 5 139 15 23 13 14 14-95 14-90 0-125-3-139-14zM12575 4671c-23-10-49-38-58-63-5-13 2-22 23-33 35-18 70-81 70-125 0-26 4-30 28-30 43 0 93 18 119 42 30 28 29 34-4 33-24 0-28 4-25 24 3 31-14 51-45 51-35 0-59 16-77 50-14 29-14 31 7 39 12 4 29 11 37 14s-1 5-20 6c-19 0-44-4-55-8zM6080 4639c0-5 5-7 10-4 6 3 10 8 10 11 0 2-4 4-10 4-5 0-10-5-10-11zM12380 4620c6-11 15-20 20-20 17 0 11 15-11 28-19 12-19 11-9-8zM12340 4534c-19-65-21-85-13-155 6-52 6-98-1-131-9-45-8-52 9-64 28-21 37-17 21 9s-10 94 9 99c10 2 10 12 0 52s-10 55 1 81c7 18 10 42 7 54-4 15 1 28 16 42 27 26 26 50-3 71l-23 17-23-75zM6015 4520c-10-11-13-20-7-20s16 9 22 20 9 20 7 20-12-9-22-20zM12370 4040c0-23 4-30 20-30 12 0 20 7 20 18 0 9-9 23-20 30-18 11-20 10-20-18z"/>
  </g>
  <g fill="#f3af58">
    <path d="M1985 7135c-17-16-25-35-25-59 0-38-26-66-100-107-22-12-42-31-45-40-9-27-63-69-89-69-32 0-73-34-97-82-11-22-34-47-51-56-38-21-89-72-82-84 21-34 177 74 334 231 104 104 230 261 230 285 0 16-54 3-75-19zM3375 7102c-16-10-52-44-78-75-43-51-55-59-120-78-67-20-79-28-167-114-79-77-112-101-197-145-96-48-105-56-138-110-31-51-41-60-73-66-51-9-81-26-122-69-57-60-190-157-241-175-47-17-119-66-119-80 0-4 12-12 26-19 24-11 38-5 162 65 401 225 775 493 1030 738 75 73 102 105 100 120-4 28-26 30-63 8zM1403 6609c-30-9-68-47-58-57 8-9 135 50 129 59-6 11-28 10-71-2zM2986 6210c-20-22-36-46-36-54s-27-38-60-68c-45-40-65-66-79-106-24-65-34-78-80-102-41-21-75-55-120-122-33-50-90-89-153-106-44-12-130-71-125-86 8-23 39-16 104 22 179 105 352 267 465 436 54 82 134 226 124 226-2 0-20-18-40-40zM12487 5879c-17-10-22-44-11-72 3-9 14-12 30-9 18 3 24 11 24 29 0 20-4 24-20 20-22-6-26 3-8 21 16 16 7 23-15 11zM12752 5828c-17-17-15-28 7-28 14 0 19 6 18 20-1 23-8 25-25 8zM12493 5773c-7-2-13-9-13-15 0-14 43-6 48 10 4 12-12 15-35 5zM12740 5770c0-5 9-10 20-10s20 5 20 10c0 6-9 10-20 10s-20-4-20-10zM12737 5733c-2-5-14-42-27-83s-29-84-36-95-16-56-20-99l-7-79 39 6c21 4 49 7 62 7 27 0 29 25 3 39s-31 65-10 97c12 18 15 34 9 48-5 15 0 34 18 67 29 52 25 99-8 99-10 0-21-3-23-7zM12487 5716c-21-21-28-86-17-147 6-31 8-93 4-144-4-54-2-112 5-145 6-30 12-111 13-180 3-133-10-191-59-270-25-41-42-82-53-127-6-24-4-36 9-48 19-16 31-11 31 14 0 9 23 66 51 126l51 110 9 158c7 107 7 169 0 190-6 19-9 97-6 187 4 164-2 290-16 290-4 0-14-6-22-14zM2242 5533c-39-14-42-17-29-30s20-12 63 6c38 17 45 24 34 31-18 12-15 12-68-7zM12902 5365c6-14 13-23 16-21 7 7-9 46-18 46-5 0-4-11 2-25zM12869 5328c-5-90-3-258 3-258 22 0 28 73 20 248-2 36-21 44-23 10zM5390 5110c0-7 3-10 7-7 3 4 3 10 0 14-4 3-7 0-7-7zM5272 5058c-18-11-32-23-32-27 0-10 107-14 121-5 6 4 6 11-1 19s-9 18-6 23c11 18-51 10-82-10zM2825 5019c13-81 56-213 103-324 354-823 1291-1247 2135-965 129 43 256 100 327 145 25 16 60 38 79 48 55 30 165 117 172 135 3 9 10 17 15 18 18 2 44 16 44 25 0 5-11 14-25 19-37 14-31 18 20 12 52-5 67 13 42 52-22 33-116 46-155 20l-27-17 19 21c16 18 30 22 83 22 55 0 67-3 87-25 31-33 39-32 70 10l27 35-26 10c-18 7-36 6-63-5-49-18-211-26-179-8 12 7 50 12 85 13 53 0 91 9 111 26 7 6-52 54-67 54-8 0-27-11-44-25-38-32-59-32-97 1-31 26-39 26-98 8-10-3-7 1 7 10 34 21 63 20 93-4 34-27 53-25 94 10 41 36 54 37 89 5 15-14 34-25 44-25 15 0 68 47 59 52-51 32-59 33-237 35-101 1-186 4-188 6-4 4 170 16 293 20 43 2 44 6 10 50-18 22-32 22-74-4-34-21-37-22-88-5-37 11-60 13-81 7-37-12-108-22-101-14 6 6 66 20 124 30 17 3 48 0 68-7 33-11 40-10 65 8 15 12 40 24 54 28 15 3 25 11 23 18-4 13-67 10-144-6-46-10-56-8-93 11-50 26-61 26-93 1-36-29-48-25-12 5 35 28 75 32 110 9 20-13 33-14 72-5 27 6 65 13 85 16l38 6-34 29c-18 17-43 30-54 30-12 0-24 5-27 10-13 22-61 10-83-20-28-37-63-39-104-5-34 29-47 31-74 10-29-22-40-18-11 5 14 11 36 20 50 20 13 0 32-9 42-20 26-29 58-25 83 10 28 38 58 45 105 25 21-9 42-13 48-9 5 3 18 0 27-8 15-12 16-11 3 5-7 9-19 17-26 17-6 0-20 9-29 19-14 15-26 18-52 14-20-3-53 0-75 7-34 12-44 11-75-3-40-19-80-22-90-6-3 6-20 19-38 30-19 12-25 19-14 19 9 0 30-12 47-26 32-27 58-26 81 1 14 17 60 19 109 5 27-7 40-5 70 11 20 11 28 18 18 15-20-6-51 17-39 29 4 4-11 4-33 0-54-11-100-8-135 10-25 13-34 13-67 1-44-16-128-36-146-36-16 1 64 30 83 30 8 0 32 9 53 20 45 24 59 25 98 4 35-18 104-11 112 10 4 10-5 12-39 8-36-4-51 0-82 21-23 16-58 28-94 32-49 6-61 4-84-14-19-15-40-21-73-20l-46 2 47 6c29 4 57 16 73 31 25 23 28 24 101 13 41-6 83-18 93-27 19-17 81-22 81-6 0 6-6 10-14 10-7 0-21 11-30 25-14 20-25 25-61 25-25 0-65 5-90 12-39 11-49 10-74-5-36-21-69-22-92-1-17 15-29 10-171-74-84-49-178-102-208-117s-95-51-145-81c-100-59-220-110-282-120-37-6-56 1-183 61-139 67-142 68-202 61-34-3-74-13-91-21-66-33-83-27-515 189-279 140-424 207-456 211l-48 8 7-44zm2402-275c-3-3-12-4-19-1-8 3-5 6 6 6 11 1 17-2 13-5zm110-211c-4-3-10-3-14 0-3 4 0 7 7 7s10-3 7-7zm-342-63c18-8 17-9-7-9-15-1-30 4-33 9-7 12 12 12 40 0zm638-327c-7-2-21-2-30 0-10 3-4 5 12 5 17 0 24-2 18-5zm-386-130c-4-3-10-3-14 0-3 4 0 7 7 7s10-3 7-7z"/>
    <path d="M5149 4988c-30-18-31-21-15-36 16-16 19-16 55 5 34 20 48 21 152 18 122-5 107 10-21 20-36 3-82 7-102 9-24 2-47-3-69-16zM12596 4805c-18-13-8-15 95-15 80 1 121 5 139 15 23 13 14 14-95 14-90 0-125-3-139-14zM5580 4791c0-5 7-12 16-15 14-5 15-4 4 9-14 17-20 19-20 6zM5598 4723c7-3 16-2 19 1 4 3-2 6-13 5-11 0-14-3-6-6zM12575 4671c-23-10-49-38-58-63-5-13 2-22 23-33 35-18 70-81 70-125 0-26 4-30 28-30 43 0 93 18 119 42 30 28 29 34-4 33-24 0-28 4-25 24 3 31-14 51-45 51-35 0-59 16-77 50-14 29-14 31 7 39 12 4 29 11 37 14s-1 5-20 6c-19 0-44-4-55-8zM12380 4620c6-11 15-20 20-20 17 0 11 15-11 28-19 12-19 11-9-8zM12340 4534c-19-65-21-85-13-155 6-52 6-98-1-131-9-45-8-52 9-64 28-21 37-17 21 9s-10 94 9 99c10 2 10 12 0 52s-10 55 1 81c7 18 10 42 7 54-4 15 1 28 16 42 27 26 26 50-3 71l-23 17-23-75zM5873 4333c-13-2-23-8-23-13s-10-12-22-16l-23-7 25-9c28-10 53-3 47 15-2 6 3 17 12 24s14 12 11 11c-3 0-15-3-27-5zM12370 4040c0-23 4-30 20-30 12 0 20 7 20 18 0 9-9 23-20 30-18 11-20 10-20-18z"/>
  </g>
  <g fill="#f4ba65">
    <path d="M1985 7135c-17-16-25-35-25-59 0-38-26-66-100-107-22-12-42-31-45-40-9-27-63-69-89-69-32 0-73-34-97-82-11-22-34-47-51-56-38-21-89-72-82-84 21-34 177 74 334 231 104 104 230 261 230 285 0 16-54 3-75-19zM3375 7102c-16-10-52-44-78-75-43-51-55-59-120-78-67-20-79-28-167-114-79-77-112-101-197-145-96-48-105-56-138-110-31-51-41-60-73-66-51-9-81-26-122-69-57-60-190-157-241-175-47-17-119-66-119-80 0-4 12-12 26-19 24-11 38-5 162 65 401 225 775 493 1030 738 75 73 102 105 100 120-4 28-26 30-63 8zM1403 6609c-30-9-68-47-58-57 8-9 135 50 129 59-6 11-28 10-71-2zM2986 6210c-20-22-36-46-36-54s-27-38-60-68c-45-40-65-66-79-106-24-65-34-78-80-102-41-21-75-55-120-122-33-50-90-89-153-106-44-12-130-71-125-86 8-23 39-16 104 22 179 105 352 267 465 436 54 82 134 226 124 226-2 0-20-18-40-40zM12487 5879c-17-10-22-44-11-72 3-9 14-12 30-9 18 3 24 11 24 29 0 20-4 24-20 20-22-6-26 3-8 21 16 16 7 23-15 11zM12752 5828c-17-17-15-28 7-28 14 0 19 6 18 20-1 23-8 25-25 8zM12493 5773c-7-2-13-9-13-15 0-14 43-6 48 10 4 12-12 15-35 5zM12740 5770c0-5 9-10 20-10s20 5 20 10c0 6-9 10-20 10s-20-4-20-10zM12737 5733c-2-5-14-42-27-83s-29-84-36-95-16-56-20-99l-7-79 39 6c21 4 49 7 62 7 27 0 29 25 3 39s-31 65-10 97c12 18 15 34 9 48-5 15 0 34 18 67 29 52 25 99-8 99-10 0-21-3-23-7zM12487 5716c-21-21-28-86-17-147 6-31 8-93 4-144-4-54-2-112 5-145 6-30 12-111 13-180 3-133-10-191-59-270-25-41-42-82-53-127-6-24-4-36 9-48 19-16 31-11 31 14 0 9 23 66 51 126l51 110 9 158c7 107 7 169 0 190-6 19-9 97-6 187 4 164-2 290-16 290-4 0-14-6-22-14zM2242 5533c-39-14-42-17-29-30s20-12 63 6c38 17 45 24 34 31-18 12-15 12-68-7zM12902 5365c6-14 13-23 16-21 7 7-9 46-18 46-5 0-4-11 2-25zM12869 5328c-5-90-3-258 3-258 22 0 28 73 20 248-2 36-21 44-23 10zM2824 5034c3-16 11-54 17-84s16-68 23-85c7-16 20-55 30-85 26-81 130-287 176-348 22-29 40-56 40-60s15-24 33-44c17-21 46-54 62-75 81-102 284-280 375-329 20-11 50-29 68-42 50-36 226-116 332-151 195-64 449-99 630-86 122 8 291 34 307 47 7 5 17 7 23 3 5-3 13 0 15 7 3 8 21 14 40 15 54 2 60 11 26 44-17 16-26 29-21 29 6 0 22-13 37-29 23-25 30-27 57-18 111 36 123 47 65 59-17 3-42 18-56 32-28 31-30 31-68 7-17-10-44-21-60-24-17-3-41-8-55-12-16-4-13-1 9 9 18 9 41 16 51 16 9 0 29 9 44 21l26 20-29 25c-16 13-34 24-40 24s-25 16-42 35-40 35-50 35c-11 0-27 4-37 9-9 5-25 12-34 15-10 3-18 12-18 21 0 12 12 15 53 15 45 0 58 4 78 26l24 26-33 29c-28 25-41 29-89 29-47 0-59-4-79-25-28-30-57-32-91-5-14 11-21 20-16 20 6 0 16-7 23-15 18-22 53-18 79 9 22 24 22 25 5 53l-18 28 25-22c31-28 40-28 81-3 18 11 42 20 54 20 11 0 28 6 38 13 17 13 16 15-14 27-28 12-39 11-77-3-48-18-64-14-97 22-11 12-32 21-50 22-29 0-30 1-8 10 28 11 56-2 72-31 11-21 64-28 74-11 10 16 61 19 95 5 48-20 63-18 94 16 37 39 56 38 97-5 19-19 37-35 41-35s21 11 37 25c17 14 42 25 57 25 39 0 26 23-19 34-24 6-77 5-154-3-171-18-223-17-234 3-18 33-46 39-98 20-47-17-48-17-84 6-24 14-47 21-66 18-16-2-26 0-23 5 7 11 57 4 100-14 26-10 38-10 71 1 37 11 39 14 25 28-16 16-98 21-143 9-14-4-7 1 15 12 49 24 65 25 101 6 44-23 71-19 96 15 16 23 30 30 55 30 37 0 43 17 15 43-29 27-154 19-252-16-31-11-172-18-166-8 3 5 0 12-6 15-7 3 24 3 70 0 66-5 87-3 100 9 16 14 35 19 145 35l48 7-19 21c-17 18-36 22-127 27-86 5-112 3-129-8-11-8-36-14-56-14l-35 1 37 8c21 4 46 14 55 23 15 13 37 14 128 10 103-5 112-8 143-35 35-30 60-27 80 8 10 17 72 33 137 34h40l-60 25c-74 31-76 31-105 0-14-15-35-25-52-25-18 0-36 9-50 25-12 14-30 25-41 25-10 0-28-11-39-25-28-36-70-33-101 6-17 22-30 30-42 26-9-4-13-12-9-18 4-8 3-9-4-5-12 7-122-50-122-64 0-4-18-10-40-13s-59-14-81-25-54-19-70-17-88 34-161 71c-132 65-134 66-196 60-35-3-78-12-94-21-67-33-84-27-501 181-368 185-418 207-491 221-27 5-29 4-22-23zm1356-469c0-7-30-13-34-7-3 4 4 9 15 9 10 1 19 0 19-2zm235-63c-3-3-11 0-18 7-9 10-8 11 6 5 10-3 15-9 12-12zm52-9c-4-3-10-3-14 0-3 4 0 7 7 7s10-3 7-7zm9-38c-11-8-29-14-40-14-20 1-21 1-1 6 11 3 24 9 30 14 5 5 14 9 20 9 5 0 1-7-9-15zm106-15c9-17 14-30 10-30s-15 14-24 30c-9 17-14 30-10 30s15-14 24-30zm-219-17c-7-2-21-2-30 0-10 3-4 5 12 5 17 0 24-2 18-5zm185-60c-10-2-26-2-35 0-10 3-2 5 17 5s27-2 18-5zm-61-10c-4-3-10-3-14 0-3 4 0 7 7 7s10-3 7-7zm-13-31l20-27-22 19c-16 14-31 17-59 13-21-3-30-3-20-1 9 3 15 10 12 15-4 5 6 9 22 9 19-1 34-9 47-28zm176-32c-8-5-33-9-55-8l-40 1 45 7c25 4 50 8 55 8 6 1 3-3-5-8zm-113-46c-3-3-12-4-19-1-8 3-5 6 6 6 11 1 17-2 13-5zm28-14c3-5 4-10 1-10s-8 5-11 10c-3 6-4 10-1 10s8-4 11-10zm165 6c0-2-13-6-29-8-17-2-28-1-25 4 5 8 54 12 54 4zm-530-36c0-5-13-10-29-10-17 0-33 5-36 10-4 6 8 10 29 10 20 0 36-4 36-10zm445-17c-11-8-19-20-17-26 2-8-2-7-10 2-11 11-11 14 0 18 7 3 18 11 25 18s14 11 17 8c3-2-4-11-15-20zm-48 0c-4-3-10-3-14 0-3 4 0 7 7 7s10-3 7-7zm-39-69c-18-19-31-24-47-19-31 9-26 22 7 17 18-2 33 2 41 12 8 9 16 16 19 16 4 0-5-12-20-26zm165-51c-7-2-21-2-30 0-10 3-4 5 12 5 17 0 24-2 18-5zm54-20c-4-3-10-3-14 0-3 4 0 7 7 7s10-3 7-7zm3-26c0-2-10-12-22-23l-23-19 19 23c18 21 26 27 26 19zm-56-62c-7-16-24-21-24-6 0 8 7 13 27 20 1 1 0-6-3-14zm-57-22c-4-3-10-3-14 0-3 4 0 7 7 7s10-3 7-7zm273-23c-8-6-22-10-30-10s-4 6 10 13c27 15 44 12 20-3zm-407-20c9 0 17-4 17-10 0-12-61-2-75 13-7 6-2 8 15 3 14-3 33-6 43-6zm324 3c-4-3-10-3-14 0-3 4 0 7 7 7s10-3 7-7zm-30-10c-4-3-10-3-14 0-3 4 0 7 7 7s10-3 7-7zm60-79c-3-3-12-4-19-1-8 3-5 6 6 6 11 1 17-2 13-5zm73-14c0-5-5-10-11-10-5 0-7 5-4 10 3 6 8 10 11 10 2 0 4-4 4-10zm-33-27c-4-3-10-3-14 0-3 4 0 7 7 7s10-3 7-7zm-70-20c-4-3-10-3-14 0-3 4 0 7 7 7s10-3 7-7zM4930 4860c-6-4 5-7 25-8 19-1 35 0 35 2 0 8-49 13-60 6zM4898 4833c7-3 16-2 19 1 4 3-2 6-13 5-11 0-14-3-6-6zM4935 4830c3-5 8-10 11-10s2 5-1 10c-3 6-8 10-11 10s-2-4 1-10zM12596 4805c-18-13-8-15 95-15 80 1 121 5 139 15 23 13 14 14-95 14-90 0-125-3-139-14zM4840 4800c0-5-7-10-16-10-8 0-12-5-9-11 4-6 14-8 22-5s12 2 8-3c-3-5 7-18 22-29 22-15 34-17 58-10 17 5 50 10 75 10 28 1 35 3 18 5-16 3-28 9-28 14s-10 9-22 9c-17 0-19 3-9 9 9 6-3 11-37 16-28 4-56 3-63-1-8-4-9-3-5 4s2 12-3 12c-6 0-11-4-11-10zM5580 4790c0-7 3-10 7-7 3 4 3 10 0 14-4 3-7 0-7-7z"/>
    <path d="M4726 4745c-11-8-15-15-9-15s16 7 23 15c16 19 11 19-14 0z"/>
    <path d="M4768 4744c-16-8-28-19-28-25s-15-9-34-8c-44 4-50-2-35-34 17-38 35-40 73-7 42 37 72 38 108 3 24-23 31-25 46-15 9 7 30 21 46 32l30 19-55-6c-51-5-56-3-83 26-34 35-32 35-68 15zM5048 4693c6-2 18-2 25 0 6 3 1 5-13 5s-19-2-12-5zM12575 4671c-23-10-49-38-58-63-5-13 2-22 23-33 35-18 70-81 70-125 0-26 4-30 28-30 43 0 93 18 119 42 30 28 29 34-4 33-24 0-28 4-25 24 3 31-14 51-45 51-35 0-59 16-77 50-14 29-14 31 7 39 12 4 29 11 37 14s-1 5-20 6c-19 0-44-4-55-8zM12380 4620c6-11 15-20 20-20 17 0 11 15-11 28-19 12-19 11-9-8zM12340 4534c-19-65-21-85-13-155 6-52 6-98-1-131-9-45-8-52 9-64 28-21 37-17 21 9s-10 94 9 99c10 2 10 12 0 52s-10 55 1 81c7 18 10 42 7 54-4 15 1 28 16 42 27 26 26 50-3 71l-23 17-23-75zM4945 4573c-14-15-25-31-25-34s11-18 25-34c23-24 30-26 63-20 20 5 67 7 104 6 43-2 69 2 74 10 4 8 3 10-5 5-8-6-10 0-5 18 6 25 0 29-42 25-3 0-14 11-25 25-18 23-28 26-79 26-52 0-62-4-85-27zM5030 4458c0-8 8-22 18-31 14-12 31-14 97-7 44 4 75 8 68 9-7 0-10 8-7 16 5 11-1 15-23 15-17 0-58 3-92 6-50 6-61 4-61-8z"/>
    <path d="M4914 4451c-50-8-123-65-96-75 9-3 28-14 42-26 23-19 31-19 120-9 52 5 111 14 130 19 19 6 60 10 90 10 39 0 51 3 40 10-8 5-54 10-102 10-86 0-87 0-119 35-35 36-37 37-105 26zM5228 4453c6-2 18-2 25 0 6 3 1 5-13 5s-19-2-12-5zM5260 4373c0-5 11-13 25-20 29-13 34 1 6 17-23 12-31 13-31 3zM5293 4293c4-3 10-3 14 0 3 4 0 7-7 7s-10-3-7-7zM5024 4263l-22-26 27-22c33-28 125-39 201-25 123 23 129 23 154 7 22-15 24-15 19 3-3 13-18 21-46 25-23 4-56 16-74 27l-32 19-43-24c-49-29-76-24-104 17-21 33-53 33-80-1zM5345 4280c3-5 8-10 11-10 2 0 4 5 4 10 0 6-5 10-11 10-5 0-7-4-4-10zM5313 4273c4-3 10-3 14 0 3 4 0 7-7 7s-10-3-7-7zM4920 4209c-14-4-37-11-52-14-39-8-35-25 6-25 26 0 41-7 59-30 32-38 52-38 88 1l28 30-27 24c-28 25-58 29-102 14z"/>
    <path d="M5253 4166l-63-11 24-29 23-30 55 13c44 11 63 11 92 1 38-12 66-8 66 10 0 5-10 10-23 10s-34 11-47 25c-25 27-33 28-127 11z"/>
    <path d="M5031 4126c-30-32-17-38 76-37 72 1 76 0 104-30 26-28 35-31 88-31 34 0 71 7 89 16 17 9 39 16 49 16 25 1 74 29 51 30-9 0-20-5-24-11-4-7-22-8-48-4-54 9-114 9-152 0-28-6-35-3-64 34-32 39-36 41-90 41-47 0-60-4-79-24zM5625 4080c3-5 8-10 11-10s2 5-1 10c-3 6-8 10-11 10s-2-4 1-10z"/>
    <path d="M4926 4054c-24-21-35-24-66-19-23 4-41 2-45-4-3-7 2-11 14-11 11 0 23-4 26-10 3-5 17-10 30-10s37-11 53-25c17-14 34-25 39-25s25 16 44 36c29 30 39 34 64 29 113-24 149-14 105 29-22 21-37 24-130 29-102 6-106 5-134-19zM12370 4040c0-23 4-30 20-30 12 0 20 7 20 18 0 9-9 23-20 30-18 11-20 10-20-18zM5450 4031c-25-4-52-11-60-16s-34-12-57-15l-43-5 25-30 25-30 33 38c39 45 75 49 110 12 30-33 55-25 53 16 0 16-4 29-8 29-3 0-12 2-20 4-7 2-33 0-58-3zm67-18c-4-3-10-3-14 0-3 4 0 7 7 7s10-3 7-7z"/>
    <path d="M5018 3969l-28-30 28-25c30-27 37-27 158 1 68 15 73 15 120-3 43-17 51-18 82-5 19 8 48 15 64 15 39 1 41 9 13 43l-23 30-34-38c-49-53-78-50-114 11-17 30-22 33-49 27-35-8-106-9-155-2-30 5-39 1-62-24z"/>
    <path d="M5183 3903c-24-2-55-10-69-18l-27-14 30-29c40-41 123-53 162-25 14 11 47 30 74 42 53 26 62 35 18 20-24-8-39-6-77 10-25 12-52 20-58 19s-30-3-53-5z"/>
  </g>
  <g fill="#f8c662">
    <path d="M1985 7135c-17-16-25-35-25-59 0-38-26-66-100-107-22-12-42-31-45-40-9-27-63-69-89-69-32 0-73-34-97-82-11-22-34-47-51-56-38-21-89-72-82-84 21-34 177 74 334 231 104 104 230 261 230 285 0 16-54 3-75-19zM3375 7102c-16-10-52-44-78-75-43-51-55-59-120-78-67-20-79-28-167-114-79-77-112-101-197-145-96-48-105-56-138-110-31-51-41-60-73-66-51-9-81-26-122-69-57-60-190-157-241-175-47-17-119-66-119-80 0-4 12-12 26-19 24-11 38-5 162 65 401 225 775 493 1030 738 75 73 102 105 100 120-4 28-26 30-63 8zM1403 6609c-30-9-68-47-58-57 8-9 135 50 129 59-6 11-28 10-71-2zM2986 6210c-20-22-36-46-36-54s-27-38-60-68c-45-40-65-66-79-106-24-65-34-78-80-102-41-21-75-55-120-122-33-50-90-89-153-106-44-12-130-71-125-86 8-23 39-16 104 22 179 105 352 267 465 436 54 82 134 226 124 226-2 0-20-18-40-40zM12487 5879c-17-10-22-44-11-72 3-9 14-12 30-9 18 3 24 11 24 29 0 20-4 24-20 20-22-6-26 3-8 21 16 16 7 23-15 11zM12752 5828c-17-17-15-28 7-28 14 0 19 6 18 20-1 23-8 25-25 8zM12493 5773c-7-2-13-9-13-15 0-14 43-6 48 10 4 12-12 15-35 5zM12740 5770c0-5 9-10 20-10s20 5 20 10c0 6-9 10-20 10s-20-4-20-10zM12737 5733c-2-5-14-42-27-83s-29-84-36-95-16-56-20-99l-7-79 39 6c21 4 49 7 62 7 27 0 29 25 3 39s-31 65-10 97c12 18 15 34 9 48-5 15 0 34 18 67 29 52 25 99-8 99-10 0-21-3-23-7zM12487 5716c-21-21-28-86-17-147 6-31 8-93 4-144-4-54-2-112 5-145 6-30 12-111 13-180 3-133-10-191-59-270-25-41-42-82-53-127-6-24-4-36 9-48 19-16 31-11 31 14 0 9 23 66 51 126l51 110 9 158c7 107 7 169 0 190-6 19-9 97-6 187 4 164-2 290-16 290-4 0-14-6-22-14zM2242 5533c-39-14-42-17-29-30s20-12 63 6c38 17 45 24 34 31-18 12-15 12-68-7zM12902 5365c6-14 13-23 16-21 7 7-9 46-18 46-5 0-4-11 2-25zM12869 5328c-5-90-3-258 3-258 22 0 28 73 20 248-2 36-21 44-23 10zM2823 5048c3-9 9-37 12-64 4-27 12-54 17-61s7-16 4-21 2-21 10-36c7-16 14-36 14-45 0-10 7-26 15-37 8-10 15-27 15-37 0-9 11-38 24-65 13-26 31-65 41-87 9-22 43-79 76-127 32-48 59-91 59-95 0-7 40-57 88-108 10-11 29-35 41-53 27-38 219-212 235-212 6 0 22-12 35-25 13-14 29-25 35-25 7 0 21-9 31-20s22-20 27-20c4 0 25-12 46-27 56-41 265-131 367-159 11-3 27-8 35-11 8-4 19-5 24-4 4 1 14-3 20-9 7-5 15-7 19-4 3 3 14 1 24-5 11-5 38-12 61-15s46-7 51-10c27-17 315-26 431-13 123 13 139 15 152 23 7 5 23 7 36 5 13-1 35 8 53 23l30 25-26 7c-15 4-53 1-86-6s-62-10-66-6c-3 3 7 7 23 8s2 4-31 8l-60 7 55 2c60 2 173 29 130 31-14 0-34 7-45 16-16 12-35 14-92 8-51-4-73-3-73 5 0 6 8 11 18 11 20 1 131 38 120 41-20 5-29 7-37 8-4 0-21 13-36 29-24 23-36 27-91 29-35 0-66-2-69-7-2-4 8-6 23-4 17 2 20 1 7-2-11-4-25-10-32-16s-14-5-19 3c-11 18 26 41 58 36 17-2 29 2 32 10 7 18-16 26-58 21-33-4-43 8-21 24 13 10 78 10 72 1-3-5 12-9 33-10 40-3 77 24 67 49-4 8-8 5-12-9-4-13-11-23-16-23s-4 12 1 26l10 25-71-7c-58-5-70-4-64 6 6 9 4 11-4 6-7-5-20-1-29 7-10 9-31 18-47 21s-31 10-33 15-20 7-40 4-35-3-32 0 24 8 45 11c22 2 41 5 43 5 6 1-26 31-33 31-3 0-3-5 1-12 5-7 3-8-5-3-9 5-10 10-2 18s17 4 34-11c31-29 59-28 74 4 10 22 9 30-9 55-27 36-38 36-71-1-22-24-35-30-65-29l-37 2 40 7c39 6 39 6 10 12l-30 5 31-1c19-1 30 3 28 9-5 13 32 55 49 55 7 1 1 7-13 14-14 8-29 12-34 8-5-3-7 2-3 11 8 22-13 27-86 22-47-3-53-2-27 4 20 5 26 9 15 10-17 1-18 3-5 11 12 7 8 10-14 10-38 0-31 6 19 14 31 5 37 4 25-5-13-9-12-10 3-5 10 3 27 6 38 6 14 0 19 7 19 25 0 14-6 25-12 26-7 0-4 5 7 10 20 9-11 7-104-8-23-4-32-2-27 6 5 7-1 11-13 11s-21-4-21-10c0-5-12-10-27-9-27 0-27 1-5 9 32 13 27 23-8 18-30-5-42 4-46 30-3 16 11 15 25-2 7-8 40-18 75-21 52-6 69-4 99 13 27 14 33 21 22 26-8 3-15 1-15-5s-5-7-10-4c-6 4-8 9-6 13s-2 13-10 20c-8 8-14 9-14 2 0-6-10-4-23 5-29 18-138 55-131 44 3-5-21-9-53-8-51 1-54 2-28 10 17 5 38 7 48 5 9-2 17-1 17 3 0 11-38 31-42 22-4-12-88-25-88-13 0 5 16 9 36 10s40 4 43 8-9 4-27 2c-18-3-35-1-38 4s-2 8 3 7c49-8 34 17-21 36-24 9-34 9-32 1 2-6 1-8-1-3-3 4-9 4-14 1-13-8-40 16-33 28 10 15-106-2-141-22-45-25-116-19-163 13-21 15-45 27-53 27s-39 15-68 34-67 39-84 46c-18 6-43 18-57 25-105 58-472 240-500 247-76 21-94 22-87 6zm1044-415c-4-3-7 0-7 7s3 10 7 7c3-4 3-10 0-14zm50 0c-4-3-10-3-14 0-3 4 0 7 7 7s10-3 7-7zm133-17c0-3-5-8-12-12s-8-3-4 4c7 12 16 16 16 8zm-25-74c-3-3-11 0-18 7-9 10-8 11 6 5 10-3 15-9 12-12zm82-88c-3-3-12-4-19-1-8 3-5 6 6 6 11 1 17-2 13-5zm250-1c-4-3-10-3-14 0-3 4 0 7 7 7s10-3 7-7zm-270-30c-4-3-10-3-14 0-3 4 0 7 7 7s10-3 7-7zm219-28c4-8 13-15 22-15 20 0 12-7-13-12-12-2-20 3-20 12s-8 14-20 12c-17-2-17-1-5 7 21 15 30 14 36-4zm-171-5c3-5 4-10 1-10s-8 5-11 10c-3 6-4 10-1 10s8-4 11-10zm108 3c-7-2-19-2-25 0-7 3-2 5 12 5s19-2 13-5zm84-57c4-4-18-5-50-3-31 2-57 1-57-2s-10-12-22-20l-23-14 22 25c19 20 32 24 73 23 27-1 53-4 57-9zm-190-52c-3-3-12-4-19-1-8 3-5 6 6 6 11 1 17-2 13-5zm168-63c3-5 2-12-3-15s-9 1-9 9c0 17 3 19 12 6zm142-8c-4-3-10-3-14 0-3 4 0 7 7 7s10-3 7-7zm-247-13c0-5-13-10-29-10-17 0-33 5-36 10-4 6 8 10 29 10 20 0 36-4 36-10zm180-10c-8-5-24-9-35-9-16 1-16 2 5 9 35 11 48 11 30 0zm-67-31c4-16 3-18-9-8-7 6-11 15-8 20 8 13 11 11 17-12zm84-16c-4-3-10-3-14 0-3 4 0 7 7 7s10-3 7-7zm11-20c-15-2-42-2-60 0s-6 4 27 4 48-2 33-4zm-101-30c-4-3-10-3-14 0-3 4 0 7 7 7s10-3 7-7zm226-113c9 0 17-4 17-10 0-5-17-10-37-10-26 0-34 3-24 9 12 8 12 10 0 14-8 2-5 3 6 1s28-4 38-4zm24-92c20-16 7-25-29-20-35 5-61 20-53 31 6 10 67 1 82-11zm18-48c3-5 4-10 1-10s-8 5-11 10c-3 6-4 10-1 10s8-4 11-10zm90-20c3-5 1-10-5-10s-9-4-5-9c3-5 1-12-5-16s-10 5-10 19c0 26 14 35 25 16zm-71-19c3-4-4-17-16-27-13-12-18-13-12-4 5 8 9 18 10 23 3 15 4 17 8 17 3 0 7-4 10-9zm263-27c-3-3-12-4-19-1-8 3-5 6 6 6 11 1 17-2 13-5zm-167-19c20-24 5-28-21-6-19 16-20 20-8 21 9 0 22-7 29-15zm-120-39c0-2-7-7-16-10-8-3-12-2-9 4 6 10 25 14 25 6zm185-36c3-5 2-10-4-10-5 0-13 5-16 10-3 6-2 10 4 10 5 0 13-4 16-10zm-78-7c-4-3-10-3-14 0-3 4 0 7 7 7s10-3 7-7zM12596 4805c-18-13-8-15 95-15 80 1 121 5 139 15 23 13 14 14-95 14-90 0-125-3-139-14z"/>
    <path d="M3986 4672c-3-6-1-14 5-17 15-10 25 3 12 16-7 7-13 7-17 1zM12575 4671c-23-10-49-38-58-63-5-13 2-22 23-33 35-18 70-81 70-125 0-26 4-30 28-30 43 0 93 18 119 42 30 28 29 34-4 33-24 0-28 4-25 24 3 31-14 51-45 51-35 0-59 16-77 50-14 29-14 31 7 39 12 4 29 11 37 14s-1 5-20 6c-19 0-44-4-55-8zM12380 4620c6-11 15-20 20-20 17 0 11 15-11 28-19 12-19 11-9-8zM12340 4534c-19-65-21-85-13-155 6-52 6-98-1-131-9-45-8-52 9-64 28-21 37-17 21 9s-10 94 9 99c10 2 10 12 0 52s-10 55 1 81c7 18 10 42 7 54-4 15 1 28 16 42 27 26 26 50-3 71l-23 17-23-75zM4390 4570c-12-7-12-11-2-20 6-5 10-7 7-4-3 4 0 13 6 21 13 15 10 16-11 3zM4343 4543c4-3 10-3 14 0 3 4 0 7-7 7s-10-3-7-7zM4205 4450c3-5 8-10 11-10 2 0 4 5 4 10 0 6-5 10-11 10-5 0-7-4-4-10zM4500 4434c0-19 5-24 25-24 18 0 25 5 25 19 0 12-9 20-25 23-21 4-25 1-25-18zM4464 4406c-3-8-4-22-2-32 3-15 5-14 27 3l25 20-22 12c-18 10-23 9-28-3zM4590 4340c0-25 4-30 24-30 18 0 23 5 21 18-2 9-4 23-4 30-1 6-10 12-21 12-16 0-20-7-20-30zM4475 4330c-3-4 3-7 13-6 9 0 16-5 15-11-2-7 2-13 7-13 6 0 10 5 10 10 0 6 10 10 22 10 31 0 19 6-24 13-21 3-40 2-43-3zM4575 4270c-19-8-19-9-1-9 13-1 17-7 14-19-3-10 1-27 8-37 13-17 15-17 32-2 10 9 17 29 17 44-1 22-7 28-26 30-13 1-33-2-44-7zM4673 4253c4-3 10-3 14 0 3 4 0 7-7 7s-10-3-7-7zM4474 4208c-4-7-3-8 4-4s12 9 12 12c0 8-9 4-16-8zM4688 4186c-9-8-19-12-23-8s-1-3 6-15c14-24 27-28 44-15 14 9 13 28-1 42-8 8-15 7-26-4zM4573 4118c-20-23-21-48-1-48 6 0 5 7-3 18-12 14-10 14 8-2 13-11 29-16 39-12s20 2 24-4c5-8 12-7 23 4 8 9 28 17 44 17 26 2 27 2 3 6-56 9-70 14-70 28 0 23-44 18-67-7zm84-35c-4-3-7 0-7 7s3 10 7 7c3-4 3-10 0-14zM4769 4107c-3-21-3-40 0-42 2-3 24-5 48-5 36 0 43 3 43 20s-7 20-39 20c-33 0-40 4-43 23-3 15-5 11-9-16zM12370 4040c0-23 4-30 20-30 12 0 20 7 20 18 0 9-9 23-20 30-18 11-20 10-20-18zM4765 3980c-3-6 1-7 9-4 18 7 21 14 7 14-6 0-13-4-16-10zM4843 3983c4-3 10-3 14 0 3 4 0 7-7 7s-10-3-7-7zM4822 3939c2-32 4-36 19-28 10 5 27 9 38 9 14 0 21 6 21 18s-12 21-40 29l-41 10 3-38zM4676 3943c-6-14-5-15 5-6 7 7 10 15 7 18s-9-2-12-12zM4761 3928c18-25 59-42 44-18-3 6-13 10-21 10s-14 8-14 18-7 19-14 19c-12 0-11-7 5-29zM4880 3855c0-22 4-25 35-25s35 3 35 25-4 25-35 25-35-3-35-25zM4835 3840c3-5 8-10 11-10s2 5-1 10c-3 6-8 10-11 10s-2-4 1-10zM4753 3823c4-3 10-3 14 0 3 4 0 7-7 7s-10-3-7-7zM4945 3750c3-5 12-7 20-3 21 7 19 13-6 13-11 0-18-4-14-10zM4993 3733c4-3 10-3 14 0 3 4 0 7-7 7s-10-3-7-7zM5020 3730c0-7 3-10 7-7 3 4 3 10 0 14-4 3-7 0-7-7z"/>
  </g>
  <g fill="#fcfcfc">
    <path d="M1985 7135c-17-16-25-35-25-59 0-38-26-66-100-107-22-12-42-31-45-40-9-27-63-69-89-69-32 0-73-34-97-82-11-22-34-47-51-56-38-21-89-72-82-84 21-34 177 74 334 231 104 104 230 261 230 285 0 16-54 3-75-19zM3375 7102c-16-10-52-44-78-75-43-51-55-59-120-78-67-20-79-28-167-114-79-77-112-101-197-145-96-48-105-56-138-110-31-51-41-60-73-66-51-9-81-26-122-69-57-60-190-157-241-175-47-17-119-66-119-80 0-4 12-12 26-19 24-11 38-5 162 65 401 225 775 493 1030 738 75 73 102 105 100 120-4 28-26 30-63 8zM1403 6609c-30-9-68-47-58-57 8-9 135 50 129 59-6 11-28 10-71-2zM2986 6210c-20-22-36-46-36-54s-27-38-60-68c-45-40-65-66-79-106-24-65-34-78-80-102-41-21-75-55-120-122-33-50-90-89-153-106-44-12-130-71-125-86 8-23 39-16 104 22 179 105 352 267 465 436 54 82 134 226 124 226-2 0-20-18-40-40zM12487 5879c-17-10-22-44-11-72 3-9 14-12 30-9 18 3 24 11 24 29 0 20-4 24-20 20-22-6-26 3-8 21 16 16 7 23-15 11zM12752 5828c-17-17-15-28 7-28 14 0 19 6 18 20-1 23-8 25-25 8zM12493 5773c-7-2-13-9-13-15 0-14 43-6 48 10 4 12-12 15-35 5zM12740 5770c0-5 9-10 20-10s20 5 20 10c0 6-9 10-20 10s-20-4-20-10zM12737 5733c-2-5-14-42-27-83s-29-84-36-95-16-56-20-99l-7-79 39 6c21 4 49 7 62 7 27 0 29 25 3 39s-31 65-10 97c12 18 15 34 9 48-5 15 0 34 18 67 29 52 25 99-8 99-10 0-21-3-23-7zM12487 5716c-21-21-28-86-17-147 6-31 8-93 4-144-4-54-2-112 5-145 6-30 12-111 13-180 3-133-10-191-59-270-25-41-42-82-53-127-6-24-4-36 9-48 19-16 31-11 31 14 0 9 23 66 51 126l51 110 9 158c7 107 7 169 0 190-6 19-9 97-6 187 4 164-2 290-16 290-4 0-14-6-22-14zM2242 5533c-39-14-42-17-29-30s20-12 63 6c38 17 45 24 34 31-18 12-15 12-68-7zM12902 5365c6-14 13-23 16-21 7 7-9 46-18 46-5 0-4-11 2-25zM12869 5328c-5-90-3-258 3-258 22 0 28 73 20 248-2 36-21 44-23 10zM12596 4805c-18-13-8-15 95-15 80 1 121 5 139 15 23 13 14 14-95 14-90 0-125-3-139-14zM12575 4671c-23-10-49-38-58-63-5-13 2-22 23-33 35-18 70-81 70-125 0-26 4-30 28-30 43 0 93 18 119 42 30 28 29 34-4 33-24 0-28 4-25 24 3 31-14 51-45 51-35 0-59 16-77 50-14 29-14 31 7 39 12 4 29 11 37 14s-1 5-20 6c-19 0-44-4-55-8zM12380 4620c6-11 15-20 20-20 17 0 11 15-11 28-19 12-19 11-9-8zM12340 4534c-19-65-21-85-13-155 6-52 6-98-1-131-9-45-8-52 9-64 28-21 37-17 21 9s-10 94 9 99c10 2 10 12 0 52s-10 55 1 81c7 18 10 42 7 54-4 15 1 28 16 42 27 26 26 50-3 71l-23 17-23-75zM12370 4040c0-23 4-30 20-30 12 0 20 7 20 18 0 9-9 23-20 30-18 11-20 10-20-18z"/>
  </g>
</svg>
