<!DOCTYPE svg PUBLIC "-//W3C//DTD SVG 20010904//EN" "http://www.w3.org/TR/2001/REC-SVG-20010904/DTD/svg10.dtd">
<svg id="cargo" version="1.0" xmlns="http://www.w3.org/2000/svg" width="637px" height="646px" viewBox="0 0 6370 6460" preserveAspectRatio="xMidYMid meet">
<g id="layer101" fill="#2e9d9f" stroke="none">
 <path d="M5480 6293 c0 -10 -19 -43 -43 -74 -23 -30 -73 -97 -112 -147 -38 -51 -75 -92 -81 -92 -7 0 -15 -11 -18 -25 -3 -13 -16 -35 -29 -49 -12 -14 -60 -77 -107 -140 -56 -76 -91 -116 -103 -116 -13 0 -17 -5 -13 -16 5 -14 -34 -72 -109 -161 -5 -7 -26 -33 -45 -59 -19 -26 -45 -58 -57 -71 -13 -13 -30 -37 -38 -53 -8 -16 -19 -32 -25 -35 -10 -6 -105 42 -183 93 -30 20 -35 27 -25 39 10 12 7 13 -14 8 -26 -7 -95 24 -193 86 -22 14 -60 37 -85 51 -135 75 -160 91 -154 99 3 5 -6 9 -19 9 -14 0 -27 7 -31 15 -3 8 -13 15 -22 15 -17 0 -211 106 -220 121 -2 5 -24 17 -47 27 -23 10 -63 32 -87 48 -25 16 -61 36 -80 46 -19 10 -53 28 -75 41 -22 13 -62 36 -90 52 -27 15 -68 40 -90 54 -22 14 -59 35 -82 45 -23 10 -40 23 -37 27 3 5 -2 9 -11 9 -9 0 -48 19 -87 43 -113 68 -209 117 -227 117 -9 -1 -37 -13 -62 -28 -216 -127 -263 -149 -274 -131 -4 5 -11 9 -17 9 -7 0 -7 -4 1 -13 16 -20 -3 -38 -84 -82 -75 -40 -92 -49 -170 -96 -27 -16 -70 -40 -95 -52 -25 -12 -47 -25 -50 -28 -3 -3 -28 -19 -57 -35 -28 -16 -100 -58 -159 -93 -59 -35 -112 -64 -119 -65 -6 -1 -24 -12 -39 -24 -16 -12 -32 -22 -37 -22 -4 0 -27 -13 -51 -29 -24 -16 -66 -42 -95 -57 -28 -16 -101 -57 -161 -91 -60 -35 -114 -63 -120 -63 -6 0 -22 -11 -36 -23 -14 -13 -47 -35 -73 -49 -27 -14 -93 -51 -148 -83 -154 -89 -165 -95 -180 -95 -8 0 -15 -4 -15 -10 0 -5 -16 -18 -35 -27 -19 -10 -101 -57 -182 -104 -180 -106 -204 -118 -222 -111 -8 2 -11 0 -7 -6 7 -11 -88 -74 -98 -65 -3 4 -6 1 -6 -5 0 -7 -15 -18 -34 -26 -18 -8 -37 -19 -40 -25 -4 -6 -7 -704 -7 -1552 0 -1265 2 -1544 13 -1555 7 -7 40 -28 74 -46 34 -18 96 -53 139 -78 43 -25 103 -59 133 -76 31 -17 58 -36 60 -43 2 -6 9 -11 15 -11 15 0 106 -48 128 -67 9 -8 48 -30 85 -49 38 -19 89 -46 114 -62 25 -15 77 -44 115 -66 39 -21 87 -49 107 -62 21 -13 41 -24 46 -24 5 0 17 -9 27 -20 10 -11 24 -20 31 -20 8 0 42 -17 76 -38 35 -20 75 -44 90 -51 15 -8 37 -22 47 -33 11 -10 26 -18 34 -18 8 0 26 -9 40 -20 14 -11 28 -20 31 -20 4 0 41 -21 84 -47 43 -27 104 -61 136 -78 32 -16 68 -40 81 -51 13 -12 35 -24 50 -28 15 -4 37 -17 50 -30 13 -13 26 -22 28 -19 5 4 31 -10 147 -77 36 -21 88 -50 115 -65 28 -15 55 -33 60 -40 6 -6 21 -16 34 -20 23 -7 120 -62 131 -74 3 -4 43 -26 90 -50 128 -67 161 -89 158 -109 -2 -12 3 -16 15 -14 10 2 34 -2 53 -8 27 -9 45 -9 80 1 24 7 44 16 44 20 0 4 42 31 93 60 50 30 99 58 108 64 50 31 99 54 99 48 0 -5 6 -1 13 7 17 22 57 46 90 54 15 3 27 10 27 15 0 5 50 38 111 73 61 34 125 71 142 81 39 23 97 53 117 61 8 4 27 14 41 24 76 50 186 112 202 112 9 0 17 4 17 9 0 5 21 22 48 37 26 16 61 37 77 46 49 30 96 49 108 45 7 -2 16 5 22 16 9 17 64 51 325 200 19 10 115 66 212 123 97 57 184 104 191 104 8 0 20 7 28 16 7 9 27 23 45 32 44 23 149 83 276 159 58 35 122 70 140 78 19 7 40 20 47 28 9 12 12 525 12 2321 0 1269 -3 2311 -6 2316 -10 17 -35 11 -35 -7z"/>
 </g>
<g id="layer102" fill="#f5fbfb" stroke="none">
 <path d="M5480 6293 c0 -10 -19 -43 -43 -74 -23 -30 -73 -97 -112 -147 -38 -51 -75 -92 -81 -92 -7 0 -15 -11 -18 -25 -3 -13 -16 -35 -29 -49 -12 -14 -60 -77 -107 -140 -56 -76 -91 -116 -103 -116 -13 0 -17 -5 -13 -16 5 -14 -34 -72 -109 -161 -5 -7 -26 -33 -45 -59 -19 -26 -45 -58 -57 -71 -13 -13 -30 -37 -38 -53 -8 -16 -19 -32 -25 -35 -10 -6 -105 42 -183 93 -30 20 -35 27 -25 39 10 12 7 13 -14 8 -26 -7 -95 24 -193 86 -22 14 -60 37 -85 51 -135 75 -160 91 -154 99 3 5 -6 9 -19 9 -14 0 -27 7 -31 15 -3 8 -13 15 -22 15 -17 0 -211 106 -220 121 -2 5 -24 17 -47 27 -23 10 -63 32 -87 48 -25 16 -61 36 -80 46 -19 10 -53 28 -75 41 -22 13 -62 36 -90 52 -27 15 -68 40 -90 54 -22 14 -59 35 -82 45 -23 10 -40 22 -38 26 3 4 -7 10 -21 13 -36 6 -23 -3 91 -69 55 -31 174 -100 265 -152 543 -313 812 -468 860 -495 30 -16 60 -33 65 -37 6 -4 26 -17 45 -28 19 -10 75 -43 124 -71 50 -28 95 -50 102 -47 7 3 45 48 85 101 337 443 454 595 477 624 15 19 73 96 130 170 57 75 108 138 113 139 5 2 9 -886 9 -2296 0 -2214 -1 -2300 -18 -2315 -10 -10 -21 -17 -24 -17 -4 0 -106 -58 -533 -305 -93 -54 -273 -158 -400 -230 -338 -194 -375 -216 -375 -220 0 -2 14 1 31 7 16 6 33 8 36 4 3 -3 11 4 17 16 9 18 65 52 326 201 19 10 115 66 212 123 97 57 184 104 191 104 8 0 20 7 28 16 7 9 27 23 45 32 44 23 149 83 276 159 58 35 122 70 140 78 19 7 40 20 47 28 9 12 12 525 12 2321 0 1269 -3 2311 -6 2316 -10 17 -35 11 -35 -7z"/>
 <path d="M2779 6272 c-216 -127 -263 -149 -274 -131 -4 5 -11 9 -17 9 -7 0 -7 -4 1 -13 16 -20 -3 -38 -84 -82 -75 -40 -92 -49 -170 -96 -27 -16 -70 -40 -95 -52 -25 -12 -47 -25 -50 -28 -3 -3 -28 -19 -57 -35 -28 -16 -100 -58 -159 -93 -59 -35 -112 -64 -119 -65 -6 -1 -24 -12 -39 -24 -16 -12 -32 -22 -37 -22 -4 0 -27 -13 -51 -29 -24 -16 -66 -42 -95 -57 -28 -16 -101 -57 -161 -91 -60 -35 -114 -63 -120 -63 -6 0 -22 -11 -36 -23 -14 -13 -47 -35 -73 -49 -27 -14 -93 -51 -148 -83 -154 -89 -165 -95 -180 -95 -8 0 -15 -4 -15 -10 0 -5 -16 -18 -35 -27 -19 -10 -101 -57 -182 -104 -180 -106 -204 -118 -222 -111 -8 2 -11 0 -7 -6 6 -10 -88 -75 -97 -66 -2 3 -7 -2 -11 -11 -3 -9 -2 -14 2 -12 194 112 648 373 795 458 109 63 228 131 265 152 37 22 123 72 192 111 69 40 222 128 340 196 118 68 259 149 313 181 54 33 99 59 101 59 2 0 59 32 127 71 68 40 140 81 159 92 64 36 295 170 299 173 16 14 -22 -1 -60 -24z"/>
 <path d="M2900 6269 c58 -38 204 -119 207 -115 2 2 -22 19 -53 37 -32 19 -78 46 -103 61 -42 25 -85 39 -51 17z"/>
 <path d="M189 4781 c-13 -11 -22 -22 -19 -24 3 -3 19 6 35 19 17 13 25 24 19 24 -7 0 -22 -9 -35 -19z"/>
 <path d="M2730 4709 c-58 -34 -125 -73 -150 -87 -25 -14 -135 -77 -245 -141 -110 -63 -335 -192 -500 -287 -165 -94 -310 -181 -322 -192 l-23 -21 0 -764 c0 -715 1 -765 18 -779 9 -8 42 -28 72 -45 30 -17 111 -64 180 -103 219 -127 569 -329 745 -430 94 -53 207 -118 252 -145 l83 -48 257 149 c677 390 841 484 1011 581 100 58 182 108 182 112 0 4 -55 39 -122 77 -68 39 -187 108 -264 153 -78 44 -147 81 -154 81 -11 0 -65 -30 -485 -272 -110 -64 -248 -143 -306 -177 -59 -33 -112 -61 -118 -61 -10 0 -399 219 -426 240 -5 4 -28 18 -50 30 -212 117 -306 174 -313 188 -4 9 -5 219 -2 466 l5 449 165 94 c91 53 206 119 255 148 306 178 354 205 365 205 6 0 52 -24 103 -54 51 -30 108 -63 128 -74 19 -11 152 -87 295 -169 343 -198 371 -213 388 -213 8 0 58 26 113 58 54 32 171 100 261 152 89 52 162 98 162 101 0 4 -46 33 -102 65 -57 31 -168 96 -248 142 -80 47 -194 113 -255 147 -60 35 -177 102 -260 150 -201 117 -583 335 -587 335 -2 0 -50 -28 -108 -61z"/>
 <path d="M170 4688 c-3 -613 0 -3010 4 -3017 8 -12 110 -71 122 -71 5 0 -19 18 -53 40 l-63 39 0 238 c0 131 0 815 0 1521 0 705 -2 1282 -5 1282 -3 0 -5 -15 -5 -32z"/>
 <path d="M313 1593 c7 -11 49 -36 215 -129 31 -17 58 -36 60 -43 2 -6 9 -11 15 -11 15 0 106 -48 128 -67 9 -8 48 -30 85 -49 38 -19 89 -46 114 -62 25 -15 77 -44 115 -66 39 -21 87 -49 107 -62 21 -13 41 -24 46 -24 5 0 17 -9 27 -20 10 -11 24 -20 31 -20 8 0 43 -18 80 -41 36 -22 68 -38 71 -36 2 3 -15 16 -39 29 -24 14 -135 78 -248 143 -113 65 -324 186 -470 270 -146 84 -283 163 -304 176 -22 13 -37 18 -33 12z"/>
 <path d="M1435 945 c11 -8 28 -22 38 -30 9 -8 23 -15 31 -15 7 0 25 -9 39 -20 14 -11 28 -20 31 -20 4 0 41 -21 84 -47 43 -27 104 -61 136 -78 32 -16 68 -40 81 -51 13 -12 35 -24 50 -28 15 -4 37 -17 50 -30 13 -13 26 -22 28 -19 5 4 31 -10 147 -77 36 -21 88 -50 115 -65 28 -15 55 -33 60 -40 6 -6 21 -16 35 -20 l25 -7 -25 19 c-14 11 -50 33 -80 50 -30 16 -100 56 -155 88 -55 32 -190 110 -300 173 -110 63 -236 136 -280 162 -44 26 -91 52 -105 59 -24 12 -24 11 -5 -4z"/>
 <path d="M4070 847 c-353 -203 -469 -271 -466 -274 2 -2 27 10 55 27 29 16 58 30 64 30 7 0 18 5 24 11 6 6 20 16 31 23 11 6 55 32 98 58 44 26 87 48 97 48 9 0 17 4 17 9 0 8 95 71 108 71 8 0 59 39 52 40 -3 0 -39 -19 -80 -43z"/>
 <path d="M3553 549 c-18 -12 -33 -23 -33 -25 0 -7 58 25 65 36 9 14 5 13 -32 -11z"/>
 <path d="M3450 489 c-30 -16 -59 -35 -65 -41 -10 -12 103 49 120 64 16 14 1 8 -55 -23z"/>
 <path d="M3272 386 c-93 -53 -135 -83 -74 -52 17 9 32 13 32 9 0 -5 6 -1 13 7 17 21 57 46 88 53 15 4 29 14 33 22 3 8 4 15 3 15 -1 0 -44 -24 -95 -54z"/>
 <path d="M2390 397 c0 -3 21 -18 48 -33 26 -15 49 -30 52 -33 8 -9 150 -82 150 -77 0 2 -53 34 -117 72 -142 81 -133 76 -133 71z"/>
 <path d="M2985 220 c-66 -38 -129 -70 -140 -70 -11 0 -33 8 -50 18 -79 48 -125 73 -125 69 0 -3 16 -14 35 -26 23 -13 35 -27 33 -38 -2 -13 3 -17 15 -15 10 2 34 -2 53 -8 27 -9 45 -9 80 1 24 7 44 16 44 20 0 4 41 30 90 58 76 45 100 61 88 61 -2 0 -57 -31 -123 -70z"/>
 </g>

</svg>